<?xml version="1.0" encoding="UTF-8"?><svg id="Capa_2" xmlns="http://www.w3.org/2000/svg" viewBox="0 0 171.22 176.37"><defs><style>.cls-1,.cls-2{fill:#000;}.cls-1,.cls-3,.cls-4{stroke-width:0px;}.cls-2{stroke:#1d1d1b;stroke-miterlimit:10;stroke-width:.27px;}.cls-3{fill:#1d1d1b;}.cls-4{fill:#fff;}</style></defs><g id="Capa_1-2"><path class="cls-2" d="M24.82,38.46c.35.44.59.92.73,1.44.14.52.16,1.07.07,1.64-.09.58-.33,1.16-.71,1.76-.38.6-.82,1.06-1.31,1.38-.49.33-1,.53-1.53.62-.53.09-1.07.06-1.62-.07-.55-.13-1.07-.36-1.57-.68s-.92-.7-1.26-1.14-.59-.92-.73-1.44-.17-1.07-.07-1.64c.09-.58.33-1.17.72-1.76.38-.59.82-1.05,1.3-1.38.49-.32.99-.53,1.53-.62.53-.09,1.07-.06,1.61.07.54.13,1.06.36,1.56.68s.92.7,1.27,1.14ZM25.33,41.73c.05-.5,0-.97-.17-1.43-.16-.46-.42-.89-.77-1.29-.35-.4-.76-.76-1.24-1.07-.48-.31-.97-.54-1.48-.68-.51-.15-1.01-.2-1.49-.16-.48.04-.94.19-1.37.44-.43.25-.8.62-1.12,1.12-.32.5-.5.99-.55,1.49s0,.98.16,1.44.41.9.76,1.3c.35.4.76.76,1.24,1.06.48.31.97.54,1.48.69s1.01.2,1.5.16c.49-.05.95-.2,1.38-.45.43-.25.81-.63,1.13-1.12.32-.5.5-.99.55-1.49Z"/><path class="cls-2" d="M34.7,30.99l-.25.28c-.09.1-.17.18-.26.24-.09.06-.19.11-.31.15-.12.04-.27.06-.45.08-.18.01-.4.02-.68.02s-.61,0-1-.02-.87-.02-1.42-.04c-.03.04-.06.08-.1.12l-.11.12-1.41,1.56,1.3,1.18c.17.15.34.24.52.26.18.02.32-.03.43-.15l.07-.08.15.14-1.34,1.48-.15-.14.07-.07c.12-.13.15-.28.12-.45-.04-.17-.14-.33-.32-.49l-4.95-4.47c-.18-.16-.35-.25-.53-.27s-.32.03-.44.16l-.06.07-.14-.13,2.65-2.94c.28-.31.59-.54.93-.71s.69-.24,1.04-.25c.36,0,.71.06,1.08.2.36.14.71.36,1.03.65.27.24.48.5.63.79s.25.58.3.89c.04.31.04.63-.03.95-.06.32-.18.64-.35.96.85.03,1.52.05,2.02.05s.87,0,1.12-.02c.26-.02.43-.04.52-.08.09-.04.15-.08.2-.14l.02-.02.1.09ZM30.57,30.92c.12-.33.16-.66.13-.99s-.12-.66-.29-.99c-.17-.32-.41-.62-.71-.9-.31-.28-.62-.5-.95-.65-.32-.15-.63-.25-.94-.27-.3-.03-.59,0-.87.11s-.52.27-.72.5l-1.76,1.95,4.13,3.73,1.41-1.56c.26-.29.45-.6.56-.92Z"/><path class="cls-2" d="M38.09,27.87l-.13-.16c.16-.14.24-.29.24-.45,0-.17-.08-.35-.26-.56l-4.38-5.04c-.16-.18-.32-.29-.48-.33-.17-.04-.31,0-.44.1l-.08.07-.13-.15,1.47-1.27.13.15c-.16.14-.24.29-.24.45s.09.35.27.55l4.38,5.04c.16.18.32.29.48.33.16.04.31,0,.44-.1l.07-.06.13.16-1.47,1.27Z"/><path class="cls-2" d="M40.25,17.72c.22.03.48.03.78-.02s.62-.12.97-.23c.35-.1.71-.21,1.09-.31.38-.1.75-.18,1.13-.25s.74-.08,1.1-.05.68.12.99.27c.3.15.57.4.8.74.18.27.29.57.34.92.04.34.02.7-.07,1.05-.09.36-.24.7-.46,1.03-.22.33-.5.61-.85.85-.3.21-.61.4-.91.57s-.6.32-.89.46c-.29.13-.55.23-.81.31s-.48.12-.69.14l-.75-1.02.18-.12.31.18c.33.19.68.29,1.06.3s.74-.05,1.09-.19c.23-.11.45-.23.66-.35.21-.12.43-.26.64-.4.29-.19.52-.43.71-.71s.32-.57.4-.87c.08-.3.1-.6.07-.89s-.13-.55-.29-.78c-.2-.29-.44-.5-.72-.62-.28-.12-.59-.18-.93-.19s-.7.03-1.07.1c-.37.07-.75.16-1.12.25s-.74.19-1.1.28c-.36.09-.7.15-1.01.18s-.59.01-.84-.05c-.25-.07-.44-.21-.59-.42-.19-.29-.29-.57-.3-.85s.05-.56.19-.82c.13-.26.31-.51.54-.75.23-.23.48-.45.75-.63.21-.15.44-.28.67-.4.24-.12.47-.23.71-.32s.46-.16.68-.22c.22-.05.42-.09.6-.11,0,.07,0,.11.02.12v-.11s.74,1.03.74,1.03l-.18.12c-.1-.05-.21-.12-.32-.19-.11-.08-.22-.14-.33-.2-.13-.08-.28-.14-.44-.18-.16-.04-.35-.05-.55-.03-.21.02-.44.08-.69.18-.25.1-.53.25-.84.46-.23.15-.44.32-.63.51-.2.19-.35.38-.46.59s-.17.42-.17.65c0,.23.08.45.24.69.12.18.29.29.52.32Z"/><path class="cls-2" d="M55.75,6.84c.07.11.16.24.25.38.09.14.18.27.26.4.08.12.12.2.13.22l-.19.09-.28-.21c-.28-.2-.58-.31-.91-.35-.33-.04-.62,0-.88.13l-1.61.77,3.23,6.76c.1.21.23.36.38.45.15.08.3.09.45.02l.09-.04.09.18-1.76.84-.09-.19c.19-.09.3-.21.35-.37.05-.16.01-.36-.11-.61l-3.23-6.76-1.61.77c-.26.12-.48.33-.65.61-.18.28-.28.59-.3.93v.35s-.2.09-.2.09c-.01-.03-.04-.11-.09-.25-.05-.14-.1-.29-.15-.44-.05-.16-.1-.3-.14-.43s-.06-.19-.05-.2l-.02-.07,6.87-3.29.04.06s.05.05.12.16Z"/><path class="cls-2" d="M63.72,12.82l-.06-.19c.2-.07.33-.17.4-.33s.06-.36-.03-.62l-2.09-6.34c-.07-.23-.18-.39-.32-.49-.14-.1-.28-.13-.44-.08l-.1.03-.06-.2,1.85-.61.06.2c-.2.07-.33.17-.39.32-.06.15-.05.35.03.61l2.09,6.34c.07.23.18.39.32.49.14.1.28.13.44.08l.09-.03.06.19-1.85.61Z"/><path class="cls-2" d="M69.84,2.5c-.08.14-.09.35-.04.61l1.5,7.34,3.19-.65c.08-.02.19-.05.33-.11.14-.06.29-.14.44-.27.15-.12.29-.28.42-.48.13-.2.22-.45.28-.76h.2s.09,0,.09,0c0,.22,0,.43,0,.62,0,.16,0,.32,0,.47,0,.15,0,.26,0,.32l-6.2,1.27-.04-.19c.21-.04.35-.14.43-.28.08-.15.1-.35.04-.62l-1.34-6.54c-.05-.23-.13-.41-.26-.53s-.27-.16-.43-.13l-.11.02-.04-.2,1.9-.39.04.2c-.2.04-.35.13-.43.27Z"/><path class="cls-2" d="M80.62,8.97v-.21c.19,0,.36-.07.49-.2.13-.12.25-.31.34-.56l2.81-7.87h.21s-.01,0-.01,0l3.66,7.52c.12.24.25.42.4.55.15.13.32.18.52.18v.21s-2.03.09-2.03.09v-.21s.12,0,.12,0c.14,0,.25-.05.33-.13.07-.08.11-.18.1-.31,0-.05,0-.1-.02-.15s-.03-.11-.06-.18c-.03-.07-.07-.15-.12-.25-.05-.1-.11-.22-.19-.38-.42.01-.81-.03-1.19-.13-.38-.1-.74-.21-1.09-.33s-.68-.22-1.01-.32c-.32-.1-.65-.14-.96-.12-.24.01-.46.06-.66.14-.14.39-.25.69-.33.92-.08.22-.14.4-.18.52-.04.12-.06.21-.07.27,0,.06-.01.12,0,.18,0,.17.06.29.15.38.09.09.22.13.39.12h.13s0,.2,0,.2l-1.73.08ZM82.33,6.09c.18-.06.37-.09.58-.1.32-.02.65.02.97.12.33.09.66.2,1,.32.34.12.69.22,1.06.32.37.1.75.15,1.14.14l-2.91-5.96-1.84,5.17Z"/><path class="cls-2" d="M108.52,10.86c-.17.05-.38.09-.62.12-.25.03-.53.03-.86,0-.33-.02-.69-.08-1.1-.19-.4-.1-.75-.24-1.04-.42s-.54-.39-.72-.63c-.19-.24-.31-.5-.38-.79-.07-.29-.06-.58.02-.89.06-.25.18-.48.34-.7.16-.21.37-.41.61-.58s.52-.31.84-.43c.31-.12.65-.2,1.02-.25-.13-.41-.23-.79-.28-1.14s-.04-.66.02-.93c.08-.31.19-.57.34-.8.15-.23.33-.41.53-.55s.43-.23.68-.27.52-.03.8.04c.56.14.97.39,1.24.75.27.36.35.77.23,1.23-.07.27-.19.52-.37.74s-.4.4-.66.55c-.26.15-.56.25-.89.32s-.69.09-1.07.06c.12.33.28.71.47,1.13.19.42.39.85.6,1.28.14.24.3.52.47.83.18.31.37.64.59,1.01.3-.17.57-.38.82-.64s.41-.58.51-.98c.1-.41.08-.79-.06-1.17-.14-.37-.42-.69-.84-.95l.08-.14c.27.16.49.34.66.54.17.2.3.4.39.61s.14.42.15.63c.02.21,0,.4-.04.56-.06.23-.15.44-.29.63-.14.19-.29.35-.45.49-.16.14-.32.25-.47.34-.15.09-.27.16-.36.21.08.14.15.26.21.37s.12.2.17.28c.06.1.11.17.15.24.17.26.33.48.48.66.15.18.3.34.45.46.15.12.29.22.43.29.14.07.29.12.43.16.12.03.24.05.37.06l-.02.09c-.12-.01-.23-.03-.33-.04-.11-.02-.21-.04-.32-.06-.34-.08-.66-.23-.97-.44-.32-.21-.63-.53-.96-.96l-.61-.86c-.1.04-.23.09-.4.14ZM108.14,9.49c-.19-.34-.35-.64-.48-.91-.21-.42-.4-.84-.58-1.25-.18-.41-.33-.79-.44-1.12-.57.1-1.06.31-1.46.62s-.65.7-.77,1.15c-.08.31-.09.6-.04.88.05.28.16.53.33.76.17.23.39.43.66.61.27.17.59.3.95.39.48.12.93.18,1.35.17s.8-.07,1.13-.19h.01c-.26-.41-.49-.78-.69-1.11ZM106.85,4.83c.06.36.17.75.32,1.18.31.02.61,0,.89-.08s.53-.18.75-.32c.22-.14.41-.32.56-.54.15-.21.27-.46.33-.73.11-.43.07-.81-.13-1.13-.2-.32-.51-.54-.94-.65-.42-.11-.79-.04-1.12.2-.32.24-.55.61-.67,1.11-.07.28-.07.6,0,.95Z"/><path class="cls-2" d="M135.41,14.25l-.11.18c-.17-.1-.35-.14-.52-.11-.18.03-.38.12-.59.27l-6.7,4.99-.17-.1,1.11-8.28c.03-.27.02-.49-.03-.68-.05-.19-.16-.33-.34-.44l.11-.18,1.75,1.05-.11.18-.11-.07c-.12-.07-.24-.1-.34-.08-.11.02-.19.09-.26.2-.06.09-.09.21-.12.36l-1.01,7.43,5.82-4.34c.13-.1.24-.2.31-.32.08-.14.11-.28.08-.4-.03-.12-.12-.23-.26-.31l-.11-.07.11-.18,1.48.89Z"/><path class="cls-2" d="M134.47,24.34l.13-.16c.16.13.33.18.49.15.16-.03.33-.15.5-.36l4.14-5.23c.15-.19.23-.36.24-.54.01-.17-.05-.31-.18-.41l-.09-.07.13-.16,1.52,1.21-.13.16c-.16-.13-.33-.18-.49-.15-.16.03-.33.15-.5.37l-4.14,5.23c-.15.19-.23.36-.24.54,0,.17.05.31.18.41l.08.06-.13.16-1.52-1.21ZM140.15,17.06h.02c.61-.13,1.08-.23,1.41-.31.33-.07.57-.13.73-.16s.26-.04.31-.03c.04,0,.08.02.11.04h0c.08.07.12.14.11.23,0,.08-.02.15-.06.2-.03.04-.07.07-.11.09-.04.02-.15.03-.31.04-.17,0-.42.01-.76.02-.34,0-.82.01-1.43.03h-.03s-.02-.14-.02-.14Z"/><path class="cls-2" d="M141.51,30.17c-.24-.54-.35-1.08-.35-1.63,0-.55.12-1.09.35-1.62s.59-1.03,1.06-1.49c.47-.46.97-.8,1.5-1.02.54-.22,1.08-.33,1.63-.31.55.01,1.09.14,1.63.39s1.04.61,1.51,1.1c.22.23.43.47.64.73s.39.52.55.79c.16.26.3.53.42.78.12.26.21.5.27.73l-.84.89-.15-.15c.02-.06.04-.12.06-.18.03-.07.05-.12.07-.18.14-.38.18-.77.12-1.19s-.21-.79-.44-1.12c0,0-.03-.06-.11-.15-.07-.1-.16-.2-.27-.32-.1-.12-.2-.22-.29-.33-.09-.1-.14-.16-.16-.18-.39-.4-.82-.7-1.29-.89-.47-.19-.95-.28-1.45-.26s-.99.15-1.49.38c-.5.23-.97.57-1.42,1.02s-.8.91-1.05,1.4c-.24.49-.38.99-.42,1.48-.03.5.04.98.22,1.45.18.47.47.91.86,1.31.1.1.2.2.31.3.1.09.21.19.32.28.4.33.84.55,1.32.67.48.12.92.1,1.32-.04.05-.02.11-.04.18-.07s.13-.04.18-.06l.15.16-.91.81c-.23-.07-.47-.16-.73-.29-.26-.12-.51-.27-.77-.44-.26-.17-.52-.36-.77-.57-.26-.21-.49-.43-.71-.65-.47-.48-.83-1-1.06-1.54ZM150.67,28.62s-.02,0-.03.01l.07-.02s-.03,0-.04,0Z"/><path class="cls-2" d="M159.4,39.33c-.1.09-.21.19-.33.31-.12.11-.24.22-.35.32-.11.1-.17.16-.19.17l-.12-.17.16-.31c.15-.31.21-.62.2-.96-.02-.33-.11-.61-.27-.85l-1.02-1.46-6.14,4.3c-.2.14-.32.28-.38.44-.06.16-.04.31.05.44l.06.08-.17.12-1.12-1.6.17-.12c.12.17.26.27.43.29.16.02.36-.05.58-.2l6.14-4.3-1.02-1.46c-.17-.24-.4-.42-.71-.55-.31-.13-.63-.18-.96-.14l-.35.05-.12-.17s.1-.06.23-.13c.13-.07.27-.14.41-.22s.28-.15.4-.21.18-.09.19-.08l.07-.04,4.37,6.25-.06.05s-.04.05-.14.15Z"/><path class="cls-2" d="M160.69,54.04c-.56.07-1.1.02-1.61-.13s-1-.42-1.44-.8c-.44-.38-.82-.89-1.12-1.52-.31-.64-.47-1.25-.5-1.84-.02-.58.07-1.12.27-1.62s.5-.94.9-1.34.87-.72,1.4-.98,1.08-.42,1.63-.48c.56-.06,1.09-.02,1.61.13.52.15,1,.42,1.44.8.44.38.82.89,1.13,1.53.31.63.47,1.24.49,1.83.02.58-.07,1.12-.27,1.62-.2.5-.5.94-.9,1.34s-.86.72-1.39.98c-.53.26-1.08.42-1.64.48ZM157.64,52.76c.4.3.83.5,1.31.6.48.1.98.11,1.5.02.53-.08,1.04-.25,1.56-.5.51-.25.96-.55,1.35-.9.39-.36.7-.75.91-1.19.22-.44.33-.9.34-1.4.01-.5-.11-1.01-.37-1.54-.26-.53-.58-.95-.98-1.25-.4-.3-.84-.51-1.31-.61-.48-.11-.98-.12-1.5-.03-.52.08-1.04.25-1.55.5s-.96.55-1.36.91c-.39.36-.7.76-.92,1.2-.21.44-.33.91-.34,1.41,0,.5.11,1.02.37,1.55.26.53.58.95.98,1.25Z"/><path class="cls-2" d="M161.92,66.38l-.11-.36c-.04-.12-.06-.24-.07-.34,0-.11,0-.22.04-.34.03-.12.09-.26.17-.42.08-.16.19-.36.34-.59.14-.23.32-.52.54-.84.21-.33.47-.73.77-1.19-.02-.05-.04-.1-.05-.15l-.05-.16-.6-2.02-1.69.5c-.22.07-.38.17-.49.3-.11.14-.14.29-.09.44l.03.1-.2.06-.56-1.91.2-.06.03.09c.05.17.16.28.32.33.17.06.36.05.58-.01l6.39-1.89c.23-.07.4-.17.51-.31.11-.14.14-.29.09-.45l-.03-.09.19-.05,1.12,3.8c.12.4.16.79.12,1.16-.04.37-.15.71-.33,1.02s-.42.58-.73.81c-.31.23-.67.41-1.09.54-.35.1-.68.14-1,.13-.32-.02-.63-.09-.92-.21-.29-.12-.55-.3-.79-.52-.24-.22-.45-.49-.64-.8-.47.71-.84,1.27-1.1,1.69-.26.42-.45.74-.57.97-.12.23-.19.39-.2.48-.01.09,0,.18.01.25v.03s-.12.04-.12.04ZM164.14,62.89c.22.27.48.48.78.63.3.15.63.24.99.26.36.02.74-.02,1.13-.14.4-.12.75-.27,1.05-.47.3-.19.54-.41.72-.66.18-.25.3-.51.36-.8s.04-.58-.04-.88l-.74-2.51-5.34,1.58.6,2.02c.11.37.27.69.49.96Z"/><path class="cls-2" d="M168.72,81.96c-.09.13-.24.2-.44.2-.19,0-.34-.05-.44-.17-.1-.12-.15-.26-.16-.41,0-.15.04-.29.13-.42.09-.13.24-.2.43-.2.2,0,.35.05.45.17.1.12.15.26.16.41,0,.15-.04.29-.13.42Z"/><path class="cls-2" d="M170.53,99.28c.07.31.21.7.45,1.17l-.9-.17-6.57-1.25c-.23-.04-.42-.03-.57.04-.15.07-.24.18-.27.33l-.02.12-.21-.04.35-1.86.21.04h0c-.04.22-.01.39.08.5.11.13.29.22.54.27l6.9,1.31c-.04-.11-.07-.23-.11-.36-.03-.11-.06-.23-.08-.37s-.03-.27-.04-.41l.13.02c0,.13.04.35.11.66Z"/><path class="cls-2" d="M161.29,109.91c-.02.05-.03.08-.02.08l-1.45-.87,1.56-5.05c.07.15.13.27.18.38s.12.24.2.4c.08.17.2.39.36.68l.63,1.2c.33.67.62,1.22.88,1.66.26.44.51.8.74,1.08.23.28.46.49.69.63.23.15.47.26.74.34.33.1.65.14.95.12.3-.02.57-.09.82-.21.24-.12.45-.27.63-.47.18-.2.3-.42.38-.66.08-.25.11-.51.08-.78s-.08-.52-.17-.77-.21-.5-.36-.73c-.15-.24-.3-.46-.46-.67l.07-.07c.55.61.91,1.19,1.06,1.75s.17,1.07.02,1.55c-.11.36-.27.67-.48.92-.21.26-.45.46-.72.61-.28.15-.58.24-.91.26-.33.03-.67-.01-1.01-.12-.41-.13-.78-.39-1.12-.77s-.66-.87-.97-1.45c-.32-.58-.64-1.23-.97-1.97s-.71-1.52-1.13-2.34l.22.32-.99,3.16c-.02.06-.04.15-.05.28-.02.12,0,.26.02.42.03.16.09.32.19.5s.24.34.44.5c0,.01-.02.05-.04.1Z"/><path class="cls-2" d="M160.08,127.13c-.04.31-.04.73,0,1.26l-.78-.48-5.72-3.47c-.2-.12-.38-.17-.54-.17-.17,0-.29.08-.37.22l-.06.1-.18-.11.98-1.62.19.11h0c-.11.19-.14.36-.09.5.05.16.19.31.42.44l6.01,3.65c0-.12.01-.24.03-.38,0-.11.03-.24.05-.37.03-.13.06-.27.11-.4l.11.07c-.04.13-.09.34-.13.65Z"/><path class="cls-2" d="M153.46,137.24c-.45.18-.91.26-1.39.23-.48-.03-.97-.15-1.47-.37-.5-.21-.97-.5-1.41-.85-.45-.35-.83-.74-1.16-1.17-.32-.43-.56-.88-.7-1.34-.14-.46-.18-.94-.11-1.41.07-.48.29-.94.64-1.37.34-.45.73-.76,1.18-.94.44-.18.91-.26,1.4-.23.49.03.98.15,1.47.36.5.21.97.5,1.41.85.45.35.83.74,1.16,1.17.32.43.56.88.7,1.34.14.46.18.94.11,1.41-.07.48-.29.93-.64,1.37-.35.45-.74.77-1.19.95ZM151.58,130.62c-.47-.22-.93-.36-1.37-.42-.44-.05-.86-.02-1.25.11-.39.13-.73.37-1.01.72-.27.36-.43.75-.46,1.15-.03.41.03.82.19,1.24.16.42.4.83.73,1.23.33.4.71.78,1.15,1.13s.89.63,1.36.85.92.36,1.37.41c.44.05.86.02,1.25-.11s.73-.37,1.01-.72c.28-.36.43-.75.46-1.15.03-.41-.03-.82-.19-1.24-.16-.42-.4-.83-.72-1.23-.32-.4-.71-.78-1.15-1.12s-.9-.63-1.37-.85Z"/><path class="cls-2" d="M131.64,148.25s-.07.05-.06.05l-.63-1.57,4.3-3.07c-.04.16-.07.29-.09.41-.02.11-.05.26-.08.44-.03.18-.07.43-.13.75l-.22,1.34c-.14.73-.24,1.35-.3,1.86-.06.51-.08.94-.06,1.3s.08.67.17.92c.09.25.22.49.38.72.2.28.43.5.68.67s.51.27.78.33c.26.05.53.06.79,0,.26-.05.49-.15.7-.29.22-.16.39-.34.54-.57.14-.22.25-.46.33-.72.08-.25.13-.52.16-.8.03-.28.04-.55.04-.81l.1-.02c.07.82,0,1.49-.21,2.03-.21.54-.52.95-.92,1.24-.3.22-.62.37-.94.44-.32.08-.63.09-.94.04-.31-.05-.6-.16-.88-.34-.28-.18-.52-.41-.73-.71-.25-.35-.39-.78-.42-1.29-.03-.51,0-1.09.1-1.74.1-.65.24-1.37.42-2.15.18-.79.35-1.64.51-2.55l-.02.38-2.7,1.92c-.05.04-.12.1-.21.19-.09.09-.17.2-.24.34-.07.14-.12.31-.15.51-.03.2-.02.42.05.67-.01,0-.04.03-.09.05Z"/><path class="cls-2" d="M123.14,152.52c-.11-.2-.24-.34-.39-.42-.15-.08-.3-.08-.44,0l-.1.06-.1-.18,1.68-.91.1.18h0c-.18.1-.29.23-.32.39-.03.14,0,.32.1.53l.5.92,3.76-2.02.06.11h0c0,.05-.02.19-.05.44s-.07.56-.12.94c-.05.38-.1.8-.16,1.27s-.12.95-.18,1.44c-.06.49-.13.96-.19,1.43s-.12.88-.17,1.25c-.05.37-.1.67-.13.9s-.06.36-.07.38h0s-.1.06-.1.06l-3.04-5.66-1.44.77-.14-.26,1.44-.77-.46-.87ZM126.84,158.09c.04-.3.09-.64.14-1.03.05-.39.1-.79.16-1.21.06-.42.11-.85.17-1.29s.11-.84.15-1.23c.05-.39.09-.74.13-1.05.04-.32.07-.57.09-.76l-3.39,1.83,2.55,4.74Z"/><path class="cls-3" d="M99.41,93.28c-3.62,1.36-7.13,2.21-10.48,2.55l3.69,9.67c1.39-1.49,2.67-3.04,3.85-4.65,1.3-1.77,2.53-3.65,3.68-5.63l-.74-1.94ZM104.58,106.68l-.14-.33-.48-1.18.47,1.22h0s.13.35.13.35l.12.32.03-.06h0s-.13-.32-.13-.32ZM112.8,85.55l-.14.39.15-.39h-.01Z"/><path class="cls-4" d="M104.58,106.68l-.14-.33-.48-1.18.47,1.22h0s.13.35.13.35l.12.32.03-.06h0s-.13-.32-.13-.32ZM112.8,85.55l-.14.39.15-.39h-.01ZM104.58,106.68l-.14-.33-.48-1.18.47,1.22h0s.13.35.13.35l.12.32.03-.06h0s-.13-.32-.13-.32ZM112.8,85.55l-.14.39.15-.39h-.01ZM104.58,106.68l-.14-.33-.48-1.18.47,1.22h0s.13.35.13.35l.12.32.03-.06h0s-.13-.32-.13-.32ZM112.8,85.55l-.14.39.15-.39h-.01ZM104.58,106.68l-.14-.33-.48-1.18.47,1.22h0s.13.35.13.35l.12.32.03-.06h0s-.13-.32-.13-.32ZM112.8,85.55l-.14.39.15-.39h-.01ZM104.58,106.68l-.14-.33-.48-1.18.47,1.22h0s.13.35.13.35l.12.32.03-.06h0s-.13-.32-.13-.32ZM112.8,85.55l-.14.39.15-.39h-.01Z"/><path class="cls-3" d="M139.07,44.4v1.48h-9.49l-12.56,33.29-.17.45-.18.48-1.17,3.1-.17.44-.17.46-13.96,36.99h-2.63l-.12-.32h0s-.12-.32-.12-.32l-.52-1.34h0s-4.08-10.7-4.08-10.7c1.66-1.73,3.2-3.57,4.61-5.51,1.05-1.45,2.07-2.95,3.03-4.48l2.59,6.75.47,1.22h0s.13.35.13.35l.12.32.03-.06h0s7.94-21.04,7.94-21.04v-.02s.16-.39.16-.39l.15-.41h0s1.13-3.02,1.13-3.02l.17-.44.17-.45,13.35-35.35h-11.5v-1.48h22.78Z"/><path class="cls-3" d="M124.81,75.43c-.36.37-.79.66-1.2.98-1.99,1.81-4.23,3.69-6.66,5.64-.24.19-.48.38-.72.57l1.17-3.12h.01c.25-.21.49-.4.73-.6,1.52-1.26,3.03-2.54,4.49-3.83l.07-.04c.41-.36.66-.56,1.05-.85.44-.33.74-.68,1.26-.68.08,0,.17,0,.26.03.95.43.04,1.37-.46,1.9Z"/><path class="cls-3" d="M112.68,83.19c-1.97,1.43-4.01,2.76-6.11,3.98,1.1-2.91,2.07-5.97,2.9-9.11.9-3.38,1.33-7.23,1.27-11.42,0-4.5-.65-8.6-1.94-12.21-1.3-3.6-3.14-6.63-5.49-8.97-1.15-1.21-2.56-2.26-4.2-3.1-1.63-.85-3.44-1.41-5.38-1.65-.87-.12-1.72-.17-2.54-.17-1.36,0-2.66.15-3.88.45-1.31.35-2,.53-3.01.93-.6.24-.87.34-1.49.61-.29.13-.58.28-.85.44l-.81.48-.77.46h-.01s4.21.01,4.21.01c.45-.18.91-.33,1.39-.47,1.54-.44,3.2-.71,4.96-.8.25-.01.49-.02.74-.02,2.28,0,4.36.49,6.18,1.47,2.02,1.09,3.68,2.35,4.91,3.76,2.24,2.59,3.84,5.67,4.75,9.15.92,3.49,1.35,7.15,1.29,10.88-.06,3.74-.52,7.45-1.38,11.04-.85,3.56-1.94,6.77-3.23,9.55-.75.56-1.57,1.02-2.45,1.36-.75.29-1.52.58-2.29.88-.15.05-.3.11-.45.16-.03.02-.06.03-.09.04-.12.05-.24.09-.36.13-2.69,1-5.78,1.75-9.19,2.23-.44.06-.89.12-1.34.16-.16.02-.33.03-.5.04-.16.02-.32.03-.49.04-.71.05-1.42.07-2.13.07-2.12,0-4.27-.21-6.42-.62-2.12-.41-4.13-1-5.97-1.74-1.81-.73-3.44-1.73-4.81-2.96-1.38-1.23-2.51-2.76-3.36-4.54-.85-1.79-1.34-3.92-1.46-6.33-.29-4.25.34-8.37,1.87-12.24,1.54-3.88,3.67-7.49,6.34-10.75.23-.28.46-.55.71-.83.11-.13.22-.27.34-.4l-.92-2.43c-.13.12-.24.25-.36.38-.02.02-.05.05-.07.08-2.68,3.11-5.18,6.41-7.42,9.82-2.24,3.4-4.17,6.95-5.72,10.54-1.32,3.04-2.56,6.39-3.69,9.94-1.14,3.57-1.75,7.57-1.81,11.89,0,4.55.51,8.62,1.53,12.1,1.03,3.49,2.71,6.46,5,8.8,1.63,1.82,3.73,3.29,6.23,4.38,1.75.75,3.71,1.13,5.86,1.13.94,0,1.93-.07,2.94-.22,2.89-.42,5.52-1.26,7.81-2.49,2.27-1.23,4.4-2.58,6.32-4.02,1.75-1.37,3.4-2.84,4.96-4.43.12-.11.25-.24.37-.37.13-.13.25-.26.36-.39,1.59-1.66,3.06-3.42,4.41-5.28,1.12-1.54,2.19-3.14,3.21-4.78.11-.17.21-.34.31-.52.11-.17.22-.34.32-.51,1.33-2.22,2.57-4.53,3.69-6.9,2-1.08,4.05-2.35,6.11-3.78.23-.17.46-.33.69-.49l1.12-2.97c-.23.18-.47.36-.71.53ZM101,94.77c-.1.18-.2.36-.31.53-.1.18-.2.35-.31.52-1.1,1.86-2.27,3.64-3.51,5.33s-2.59,3.32-4.05,4.87c-.12.13-.24.26-.37.39-.11.13-.23.25-.36.37-1.07,1.12-2.21,2.19-3.4,3.22-1.48,1.24-3.11,2.43-4.82,3.52-1.72,1.1-3.63,2.04-5.7,2.81-2.14.76-4.34,1.15-6.56,1.15h-.48c-2.38-.06-4.59-.59-6.59-1.59-3.52-1.82-6.18-4.81-7.92-8.9-1.74-4.1-2.47-8.97-2.18-14.48.36-5.21,1.32-9.95,2.86-14.06,1.32-3.54,2.82-6.93,4.45-10.11-.15.72-.28,1.43-.39,2.12-.22,1.32-.38,2.75-.5,4.25-.18,4.94.74,8.92,2.74,11.82,1.99,2.91,4.75,5.08,8.19,6.47,4.01,1.66,8.63,2.49,13.72,2.49h.7c.51-.01,1.03-.03,1.55-.06.16-.01.33-.03.49-.04.16-.01.32-.03.49-.05,3.35-.32,6.86-1.16,10.49-2.52.15-.05.3-.11.45-.17.15-.05.29-.11.44-.17.91-.35,1.82-.74,2.74-1.16-.59,1.17-1.21,2.33-1.86,3.45Z"/><path class="cls-4" d="M112.8,85.55l-.14.39.15-.39h-.01Z"/><path class="cls-3" d="M98.37,90.58c-2.68,1-5.74,1.73-9.08,2.2-.48.07-.97.13-1.46.17l-10.58-27.73-.78-2.03-.08-.23-.09-.22-3.6-9.44-.1-.27-.1-.26-.91-2.39-.1-.26-.12-.32-1.5-3.92h-9.49v-1.48h32.59v1.48h-11.7l.03.08,5.39,14.1.09.23.09.22.75,1.97v.02s10.75,28.08,10.75,28.08Z"/><path class="cls-3" d="M112.8,85.55l-.14.39.15-.39h-.01ZM104.58,106.68l-.02.06.12.32.03-.06h0s-.13-.32-.13-.32Z"/><path class="cls-4" d="M104.58,106.68l-.14-.33v.04s-.01.01-.01.01l.13.34.12.32.03-.06h0s-.13-.32-.13-.32Z"/><polygon class="cls-3" points="104.71 106.99 104.71 107 104.68 107.06 104.56 106.74 104.43 106.4 104.43 106.39 103.96 105.17 104.44 106.35 104.58 106.68 104.71 106.99"/><path class="cls-1" d="M116.84,156.32c-5.51.88-17.11,2.53-22.66,3.15-2.27.25-4.61.26-6.9-.06-7.37-1.02-14.49-3.61-21.51-6.56-4.77-2.01-9.46-4.33-14.22-6.41-4.96-2.17-9.67-4.93-14.13-8.31-.23-.18-.45-.39-.68-.58.04-.05.07-.11.11-.16,1.4.91,2.81,1.82,4.39,2.84-.18-.7-.3-1.14-.4-1.59-.52-2.28-1.14-4.55-1.53-6.86-.52-3.08-.89-6.2-1.28-9.3-.05-.41.1-.84.15-1.26.1-.03.2-.05.3-.08.29.44.72.84.86,1.33.47,1.69.99,3.4,1.23,5.13.48,3.53.85,7.08,1.15,10.63.17,2.03.89,3.4,2.65,4.01.27.09.5.32.77.45,1.89.92,3.78,1.84,5.45,2.65-.85-1.55-1.89-3.27-2.77-5.08-.74-1.54-1.32-3.17-1.91-4.8-.12-.32.06-.77.1-1.16.32.18.74.27.96.56.4.52.73,1.13,1,1.75,1.05,2.39,2.06,4.81,3.1,7.21.76,1.76,1.92,2.93,3.58,3.6,2.16.87,4.25,1.97,6.39,2.92,3.25,1.43,6.52,2.81,9.78,4.21-.61-.83-1.3-1.46-1.98-2.11-.69-.66-1.41-1.28-2.05-2.01-.78-.9-1.52-1.66-2.61-.82-.07.05-.19.07-.27.04-.5-.23-.99-.47-1.48-.71.3-.39.59-.79.89-1.17.07-.09.2-.13.35-.24-.78-.78-1.31-1.72-2.58-1.31-.78.25-1.78-.15-2.66-.38-.29-.08-.53-.53-.79-.81.24-.27.44-.61.72-.8.27-.18.62-.2,1.04-.33-.21-.4-.32-.75-.53-.99-.64-.72-1.25-1.39-2.29-.94-1.65.72-2.17-1.87-3.6-2.02-.25-.03-.49-.62-.74-.94-.29-.37-.6-.73-.88-1.11-.28-.39-.77-.85-.74-1.2.07-.64.46-1.22.58-1.52-.49-.95-.88-1.7-1.27-2.44.42-.11.84-.22,1.55-.4-.81-.41-1.49-.66-2.09-1.08-.66-.46-1-1.02-.78-2.07.14-.65-.89-1.6.19-2.01-.15-.66-.36-1.21-.38-1.76-.01-.33.25-.65.39-.97.28.18.6.31.84.55.23.24.39.86.55.85,1.11-.05,1.11.95,1.26,1.47.59.18,1.31.19,1.41.46.22.6.27,1.4.12,2-.14.51-.68.85-1.01,1.3-.16.22-.22.52-.33.78.12.08.24.16.36.25.27-.41.49-.91.84-1.21.25-.21.92-.29.98-.17.35.69.6,1.45.83,2.21.17.56.27,1.14.36,1.52l1.96-.87c.27.86.55,1.71.82,2.57.16.23.57.33.98.38.28.03.75-.12.81,0,.18.38.24.86.28,1.3.03.3,0,.59-.06.89-.12.54-.17,1.15-.42,1.6-.21.39-.62.62-.96.94.16.24.26.44.41.57.19.16.41.26.62.38.08-.24.17-.47.25-.71.16-.45.23-1.21.49-1.29.36-.11.85.31,1.51.59.95-.29,1.24-.16,1.48,1.28.14.81.07,1.72-.13,2.5-.18.69-.22,1.14.37,1.4.56-.12,1.12-.11,1.67-.16.22-.02.43-.1.6-.24.43-.35.94-.86,1.35-.22.24.39.15,1.22-.04,1.73-.19.54-.67.94-1.11,1.52,1.28,1.22,2.5,2.38,3.71,3.54.15-.58.09-1.02.05-1.47-.42-4.28-.2-8.46.91-12.49.1-.37.46-.63.7-.94.19.39.43.77.56,1.18.09.29.1.65.05.96-.2,1.4-.37,2.81-.65,4.18-.52,2.54-1.3,5.01-.99,7.76.12,1.05.53,1.67,1.28,2.26,2.79,2.2,5.89,3.27,9.1,4.03,3.31.79,6.61,1.7,10.1,1.55.23,0,2.5,0,4.85-.29l13.37-1.67,6.14-.92,1.77.02ZM51.64,135.36c-.07.13-.14.27-.21.4.37,1.22,1.48,1.47,2.3,2.08.84.62,1.75,1.12,2.58,1.63-.08-.56-.19-1.25-.29-1.94.06.04.12.09.18.13.37-.9.79-1.78,1.07-2.72.07-.25-.3-.7-.47-1.05-.27.18-.61.29-.8.54-.33.43-.56.96-.89,1.54-.27-.96-.47-2.22-1.47-1.78-.99.43-.39,1.52.04,2.36-.73-.43-1.39-.81-2.04-1.19ZM40.9,136.48c-.4-4.88-.41-9.82-2.15-14.49l-.45.07c.45,4.87,1.46,9.66,2.6,14.42ZM69.88,147.08c1.11-2,1.96-8.07,1.22-9.42-1.04,3.07-1.12,6.19-1.22,9.42ZM57.88,138.51c.17-.38.42-.77.42-1.18,0-.17-.58-.61-.78-.54-.36.13-.73.48-.92.86-.25.49,1,3.1,1.46,3.02.5-.09.97-.58,1.36-1,.14-.15.03-.62.03-.94-.43,0-.87-.03-1.3,0-.16.01-.3.19-.45.29-.03-.05-.07-.1-.1-.16.1-.12.22-.22.28-.36ZM46.36,135.07c1.08,3.63,2.58,7.01,4.79,9.97-1.94-3.12-2.67-6.96-4.79-9.97ZM62.57,148.81c1.28.77,2.04.32,2.64-.38.25-.29.3-.95.23-1.4-.11-.65-.52-1.14-1.17-.9-.75.27-.36.87-.17,1.4.05.13.1.26.12.32-.54.32-.99.58-1.65.97ZM49.1,124.61c-.69,1.4-.09,2.68,2.07,4.45-.11-1.05-.2-1.85-.28-2.66-.23.05-.46.11-.68.15-.36-.62-.71-1.24-1.11-1.94ZM61.59,143.42c-.46-.41-1.11-.52-1.68-.76-.03.32-.18.8-.05.93.68.69,1.42,1.28,2.22,1.98.59-1.12-.01-1.72-.49-2.14ZM52.58,134.83c.36-.92,1.43-1.84-.34-2.75,0,.6.01,1.1.02,1.56-.62-.29-1.28-.61-1.94-.92-.04.11-.09.23-.13.34.49,1.12,1.41,1.5,2.39,1.76ZM52.95,128.86c.02-.35-.25-.74-.39-1.11-.32.14-.73.18-.93.44-.53.68-.5,1.51-.1,2.43.9-.23,1.36-.84,1.42-1.76ZM53.09,138.24c-.18.03-.47.21-.48.36-.02.24.1.57.25.76.55.69,1.84.88,2.59.45-.43-.97-1.53-1.72-2.37-1.57ZM62.88,142.12c-.05-.36-.35-.73-.6-1.01-.06-.06-.54.15-.57.31-.08.44-.14.98.01,1.38.19.51.6.93.91,1.39.09,0,.18-.01.28-.02,0-.69.06-1.38-.03-2.06ZM57.99,145.09c1.13.58,2.17.9,3.47.57-2.02-1.59-2.53-1.69-3.47-.57ZM54.8,140.95c1,.85,2,.52,3.14.46-.75-1.22-2.32-1.45-3.14-.46ZM53.83,131.23c-.11-.12-.61-.04-.67.11-.27.58.49,2.04,1.13,2.24.27-.87.13-1.67-.46-2.34ZM60.49,140.4c-.12-.04-.45.39-.49.65-.14.92.29,1.31,1.15,1.24.1-.81.2-1.59-.66-1.89ZM49.85,128.59c-.22,1.29.58,1.88,1.17,2.74.06-1.17-.1-2.08-1.17-2.74ZM66.19,147.71c.36-.74.65-1.32,1.04-2.12-1.54.08-1.76.55-1.04,2.12ZM73.19,155.55c.05-.1.11-.2.16-.31-1.06-.76-2.13-1.53-3.19-2.29-.05.09-.1.17-.15.26,1.06.78,2.13,1.56,3.19,2.34ZM59.27,137.98c.16-.32.24-.69.35-1.05-.21-.07-.52-.28-.62-.19-.21.19-.3.53-.55,1.02.44.13.78.29.82.23ZM49.03,129.48c-.11.13-.22.26-.33.39.44.46.88.93,1.32,1.39.07-.09.14-.17.21-.26-.4-.51-.8-1.02-1.21-1.53ZM50.82,137.12l1.69.68c.03-.11.05-.22.08-.33-.59-.11-.94-1.23-1.77-.35Z"/><path class="cls-1" d="M96.58,160.02c-.13.02-1.22.12-1.34.12-3.5.21-5.52.06-8.69.13-.39,0-.83.12-1.13.36-1.1.87-2.15,1.81-3.21,2.74-.69.62-1.33,1.32-2.04,1.91-.23.19-.62.11-.94.15-.04-.4-.24-.95-.09-1.17.78-1.13,1.61-2.23,2.52-3.22.49-.54,1.17-.85,2.01-1.43-.73-.11-1.2-.27-1.63-.22-1.6.18-3.2.36-4.77.67-2.9.57-5.71,1.47-8.36,2.89-.92.5-1.61,1.12-1.65,2.49-.02.61-.43,1.18-.66,1.78-.12-.04-.23-.07-.35-.11-.15-.5-.3-1-.52-1.77-.16.98-.15,1.77-.43,2.37-.47,1.02-1.03.34-1.45-.23-.69.31-.84.7-.53,1.52.25.66.31,1.49.25,2.2-.07.98-.58,1.2-1.38.82-.21-.1-.47-.15-.68-.11-.88.19-1.13-.12-.92-1.15.05-.26.12-.52.25-1.11-.63.59-1.06.99-1.51,1.41.39.57.83.99.99,1.5.2.63.3,1.39.18,2-.04.22-.86.19-1.54.31-.66.9-.77.92-1.62.01-.27.37-.49.8-.81,1.1-.64.63-1.19.41-1.31-.58-.08-.68.08-1.38.15-2.17-1.04-1.35-1.05-1.5-.21-2.4.08-.55.22-1.46.44-1.47.54-.03,1.16.27,1.67.59.36.23.61.72.92,1.11.81-.79,1.55-1.52,2.34-2.29-.2-.08-.29-.12-.38-.14-1.17-.36-1.24-.54-.73-1.71.06-.13.02-.33.01-.49-.06-1.2.73-1.86,1.68-1.37.31.16.59.42.88.63.33-.36.63-.68.92-1-.45-1.71-.01-2.12,1.92-1.81-.21-1.07.35-1.26,1.06-1.16.36.05.79.18,1.05.45.51.51.86.27,1.33.02,1.72-.9,3.42-1.85,5.2-2.56,1.49-.59,3.09-.87,4.79-1.32-2.24-.69-4.38-1.19-6.43-2.02-2.11-.85-3.97-.46-5.55.9-2.16,1.85-4.14,3.96-6.2,5.96-.3.29-.6.6-.96.78-.52.28-.94.06-.75-.66.2-.8.42-1.7.9-2.25,1.3-1.49,2.64-2.99,4.17-4.14,1.21-.91,2.73-1.29,4.11-1.91-.42-.32-.85-.49-1.29-.53-2.28-.21-4.56-.36-6.83-.58-.82-.08-1.47-.03-1.66,1.09-.06.34-.39.6-.59.91-.28.45-.62.88-.81,1.38-.29.78-1.06,1.42-1.74,1.23-.91-.25-.93-1.06-.9-1.89,0-.13-.01-.27-.01-.33-.67-.28-1.28-.53-1.92-.79-.17.26-.31.6-.53.81-.74.7-1.44,1.78-2.29,1.94-1.12.21-1.97.79-2.87,1.37-.2.13-.5.21-.7.13-.22-.08-.5-.36-.55-.59-.18-.89-.27-1.8-.36-2.53-.65-.28-1.07-.46-1.49-.64-1.01,1.09-2.02,2.21-3.05,3.3-.13.14-.32.25-.49.27-1.36.13-2.28,1.36-3.57,1.64-.36.08-.87.23-1.09.02-.26-.25-.27-.84-.38-1.28.05,0,.09.02.14.03.22.35.43.7.65,1.05.33-.32.74-.57.96-.97.22-.4.24-.94.38-1.55.22.81.35,1.29.48,1.78.38-.4.83-.76,1.12-1.24.12-.21-.06-.7-.16-1.05-.09-.3-.29-.57-.37-.87-.33-1.21-1.56-1.79-2.72-1.04.53.39.96.72,1.34,1-.88.19-1.33-.08-1.54-1.01-.32-1.4-.9-2.03-1.99-2.01-.32,0-.63.29-.94.44.26.33.47.82.79.97.47.23,1.01.22,1.52.31,0,.11-.02.22-.02.34-.6-.11-1.22-.36-1.8-.3-.46.04-.9.42-1.29.73-.1.09-.03.72.02.74.4.12.85.26,1.23.17.44-.1.83-.44,1.24-.67.04.08.09.16.13.23-.55.45-1.09.91-1.64,1.36h.02c-.23-.14-.46-.28-.73-.46-.31,1.07-.72,1.96-1.69,1.9-.33-.02-.66-.73-1.12-1.28-.74.21-1.71.49-2.68.76-.57.16-1.26-.15-1.05-.75.42-1.2,1.04-2.38,1.83-3.26.38-.42,1.18-.3,1.21-1.29,0-.18.51-.48.74-.42.49.14.97.44,1.41.75.51.36.98.81,1.66,1.39-.31-1.89.21-2.47,1.55-2.08.42.12.79.45,1.2.63.54.23,1.1.39,1.79.64-.66-.74-1.13-1.27-1.6-1.79.44-.41.87-.81,1.46-1.36.1-1.17.77-1.49,1.9-.59.26.21.45.51.7.75.14.13.32.21.66.43-.14-.53-.26-.8-.27-1.06-.01-.41-.07-1.01.13-1.17.26-.21.78-.2,1.11-.04.41.21.79.62,1.08,1.03.31.44.51.99.87,1.73.35-.41.64-.74.92-1.07.03.01.06.03.09.05.5.51,1,1.01,1.32,1.34-.68-.03-1.49-.1-2.29-.07-.15,0-.35.36-.38.59-.02.12.27.43.45.47.63.12,1.27.16,1.92.24-.03.05-.08.13-.11.21-.15.37-.3.75-.45,1.13.37-.12.81-.13,1.09-.37.54-.46.98-1.05,1.46-1.58-.06-.06-.17-.18-.17-.18.72-.62,1.4-1.19,2.1-1.79-.08-.15-.19-.26-.22-.39-.1-.45-.17-.91-.24-1.37.44.03.9-.02,1.31.13.36.13.67.49.83.61.53-.33.89-.75,1.28-.75.41,0,.83.41,1.25.64q.51-1.33,2.1-.62c.22-.29.45-.58.72-.93-.21-.08-.35-.17-.5-.2-.37-.07-.76-.18-1.12-.14-2.65.23-5.31.44-7.95.74-1.82.21-3.61.71-5.46.11-.28-.09-.52-.42-.78-.64.23-.19.44-.5.7-.55,2.28-.43,4.55-.89,6.85-1.19,1.24-.17,2.52-.06,3.79-.08-.05.1-.09.21-.14.31-2.03-1.15-4.07-2.28-6.09-3.47-1.5-.88-3.04-1.15-4.66-1.12-3.53.08-6.81,1.27-10.18,2.11-.52.13-1.11-.09-1.67-.14.32-.54.53-1.23.97-1.59,2.02-1.7,4.46-2.03,6.92-2.16,1.24-.07,2.5-.01,3.86-.01-.95-.73-1.82-1.34-2.65-2.03-.67-.56-1.26-1.01-1.89-.08-.13.19-.45.33-.66.28-1.15-.25-2.43-.28-3.4-.93-.74-.49-1.26-.49-1.94-.38-1.35.21-1.8-.43-1.42-1.64-.25-.66-.66-1.24-.56-1.62.11-.42.69-.64,1.25-1.11-1.17-.48-2.13-.98-3.12-1.24-2.27-.61-4.57-1.08-6.85-1.64-.4-.1-.78-.34-1.17-.51.03-.16.07-.33.1-.49,3.65-1.39,7.12-.06,10.38,1.84.19-.59.37-1.13.58-1.81-.38-.37-.56-1.39-1.58-1.26-.92.12-1.93.44-2.64-.8-.06-.1-.29-.1-.45-.11-.89-.07-1.78-.1-2.67-.22-.34-.05-.71-.24-1-.49-.11-.09-.11-.58,0-.77.55-.96,1.13-1.9,1.74-2.81.12-.18.44-.18.66-.27.17-.07.34-.15.63-.28-.74-.68-1.37-.64-2.06-.5-.43.09-1.2.19-1.31-.03-.47-.96-1.27-.85-1.94-1.18-.94-.46-1.1-1.34-.39-2.06.13-.13.24-.29.2-.23-.1-.8-.39-1.52-.19-1.9.19-.39.86-.45,1.32-.65-.13-.7-.45-.89-1.02-.74-.68.18-1.39.38-2.09.33-1.18-.09-1.81-1.07-1.75-2.37.04-.77-.03-1.55,0-2.32.03-.72.29-1.2,1.01-1.19.3,0,.75-.08.84-.29.1-.23-.15-.67-.26-1.05-1.88,1.15-4.29-.94-4.15-3.07-1.31-.64-2.67-1.26-4-1.97-.69-.37-1.35-.85-1.96-1.36-.2-.17-.33-.65-.28-.93.04-.21.41-.49.63-.46.95.13,1.9.32,2.85.55.37.09.72.34,1.16.56-.31-.83-.71-1.49-.73-2.14,0-.23.89-.43,1.49-.7.07-.16.24-.54.4-.91-.96-1.67-.96-1.95-.27-2.49-.57-.66-1.32-1.25-1.75-2.06-.65-1.22-.29-1.93,1.15-2.16-.28-.84-.35-1.95-.85-2.35-1.23-1-2.65-1.66-3.98-2.49-.25-.16-.58-.47-.6-.73-.02-.27.23-.71.46-.8.67-.26,1.39-.38,2.25-.6-.6-.27-1.16-.46-1.67-.75-.76-.43-1.52-.88-2.22-1.44-.2-.16-.31-.8-.2-1.06.11-.24.56-.33.87-.33.36,0,.73.16,1.18.28-.45-1.22-.95-2.13-2.18-2.19-.61-.03-1.3-.17-1.81-.55-.47-.35-.98-1.06-1.05-1.65-.1-.81.66-.83,1.22-.91.04,0,.08-.09.1-.12-.29-.54-.67-1.04-.82-1.61-.13-.46-.15-1.2.08-1.44.23-.24.9-.18,1.26.04.45.27.79.82,1.17,1.26.17.2.3.43.45.63.33-.23.57-.53.84-.56.42-.05,1.01-.07,1.25.21.26.3.34.99.28,1.46-.11.92-.34,1.83-.58,2.71-.23.82.08,1.37.63,1.9.24-.36.42-.73.68-1.02.62-.7,1.36-.47,1.73.45.3.74.68,1.43,1.11,2.32.63-1.55,1.51-1.25,2.35-.68.4-.31.74-.57.92-.72-.74-.66-1.63-1.26-2.28-2.09-.71-.91-.52-1.36.48-1.72-.13-1.19.64-1.75,1.32-2.28.76-.58.85-1.17.29-2.09-.5-.82-.87-1.75-1.21-2.67-.21-.58-.26-1.23-.38-1.85-.09-.46-.19-.91-.26-1.37-.12-.76-.25-1.51-.3-2.27-.04-.51-.09-1.14.13-1.51.15-.25.74-.13,1.38-.21.76-.45.68-1.48.53-2.61-.07-.51.05-1.24.34-1.51.24-.22.86.09,1.21.15-.02-.03-.21-.22-.28-.44-.27-.94-.59-1.88-.69-2.84-.02-.19.88-.44,1.36-.67.07.53.14,1.06.23,1.7l1.55-.69c-.31-.55-.57-1.1-.92-1.55-.05-.06-.57.38-.88.58.13-.35.26-.7.4-1.04.54.31,1.09.63,1.65.95.45-.42,1-1.02,1.63-1.48.26-.19.87-.26.98-.09.21.3.26.86.2,1.26-.06.42-.34.78-.43.97.61.65,1.29,1.05,1.4,1.57.1.49-.41,1.1-.65,1.67.09.06.29.13.42.29.28.33.51.7.77,1.05-.29.26-.55.62-.89.77-1.02.47-2,.19-2.97-.47-.24-.16-.54-.19-.81-.28-.01.1-.02.19-.03.29.83.47,1.55,1.13,2.59,1.15.8.01,1.1,1.54.42,2.11-.52.44-1.17.74-1.81.91-.64.17-.99.43-.83,1.26.82.3,1.98.04,2.21,1.33.23,1.35-1.04,1.18-1.64,1.61.03.67.05,1.27.07,1.88,1.14.71,1.44,1.91.51,2.31-1.17.5-2.33,1.58-3.87.44-.02.8-.03,1.47-.04,2.14,0,.61.16.89.79.88.37,0,1.01.34,1.12.68.32,1.08,1.37,2.09.67,3.3-.24.41-.81.58-1.26.77-.36.15-.77.16-1.23.25.07.38.12.7.2,1.11.25-.18.39-.36.55-.38.52-.05,1.19-.28,1.53,0,.4.34.79,1.24.68,1.72-.14.65-.68,1.27-1.2,1.66-.44.34-1.09.33-1.64.48-.01.16-.04.26-.03.36.48,3.38.97,6.77,1.46,10.15.03.19.14.48.26.53.74.31.48.86.41,1.42-.07.5-.06,1.01-.08,1.52.35-.13.42-.36.55-.47.25-.2.55-.34.82-.5.12.35.28.69.36,1.05.08.34-.04.79.12,1.03.69,1.02.48,1.96.09,2.92-.19.46-.38.92-.58,1.39.62.32,1.13.75,1.65.81.8.1.98.22.88,1.15-.2-.22-.42-.47-.64-.72-.27.51-.53,1.02-.85,1.63-.01-.32.03-.6-.04-.84-.14-.5-.33-.98-.53-1.45-.02-.04-.39.04-.39.07,0,.51-.01,1.03.05,1.54.03.23.24.44.31.68.11.37.17.76.24,1.14-.33-.32-.39-.72-.58-1.03-.14-.23-.44-.32-.68-.48-.06.25-.19.5-.16.74.18,1.44.65,1.83,1.95,1.56.19.61.39,1.24.58,1.87.09.04.19.08.28.11.22-.72.51-1.42.6-2.16.02-.15-.72-.47-1.12-.72.57-.31,1.14-.37,1.49.45.5,1.17-.58,3.03-1.61,3.02-.11-.68-.21-1.35-.32-2.08-1.32.43-.76,1.74-1.12,2.64-.25-.28-.44-.48-.54-.58-.44.33-.79.6-1.29.98,3.02-.27,3.51,2.9,5.08,4.64-.69-1.41-1.37-2.82-2.06-4.23l.14-.08c.3.44.61.88.91,1.31.15-.51.02-.93.09-1.27.11-.55.24-1.26.59-1.52.26-.2.92.1,1.32.37.59.4,1.05,1.05,1.64,1.42.69.43.73.99.49,1.62-.21.53-.54,1-.82,1.49.18-.81.36-1.61.59-2.6-1.34.14-1.32,1.37-1.76,2.09-.09-.05-.18-.11-.27-.16.23-.59.47-1.18.7-1.76.13-.33.28-.65.37-.99.02-.06-.31-.32-.32-.31-.24.28-.48.57-.68.89-.06.1-.03.28-.04.42-.11-.04-.23-.09-.34-.13.12-.5.23-1,.41-1.77-.39-.08-.9-.37-1.21-.2-.59.32-.37,1.57.44,2.68-.89-.25-.92.21-.59.93.28.61.52,1.22,1.29,1.25.28.01.58.46.86.71-.05.09-.11.17-.16.26-.27-.22-.53-.44-1.05-.88.13.87.2,1.41.32,2.21-.27-.39-.38-.61-.54-.76-.2-.19-.46-.41-.68-.42-.18,0-.48.29-.48.47,0,.28.15.62.33.84.18.23.46.35.88.63-.37.07-.58.06-.73.16-.2.13-.36.34-.54.51.22.16.45.45.66.45.52,0,.92-.2,1.05-.91.14-.79.48-1.37,1.31-1.52.39-.07.7-.59,1.04-.91-.33-.32-.67-.64-1.04-1,0,0,.11-.12.22-.24,1.22.5,1.35.89.79,2.22-.07.18-.09.4-.11.6-.13,1.19.81,1.19,1.4,1.69.3-.82.58-1.72,1.54-1.47,1.35.36.98,1.8,1.27,2.88.37-.31.68-.57.94-.79-.51-1.82-1.07-3.53-1.45-5.29-.43-1.96-.85-3.86-2.34-5.23-.09-.09-.15-.24-.21-.37-.62-1.22-.44-1.64.72-1.66.12-1.19-.24-2.01-1.25-2.62-.71-.43-1.37-1.11-1.89-1.83-.27-.36-.19-1.05-.26-1.59.45-.05.91-.13,1.37-.15.17,0,.34.1.52.16.23-1.61.24-1.62,1.49-1.51,0-.34,0-.68,0-1.02-.07.08-.15.16-.22.23-.9-.77-1.84-1.48-2.69-2.33-.24-.24-.36-.95-.23-1.25.12-.26.67-.27,1.04-.32.23-.03.47.08.52.09.27-.51.41-1.14.7-1.22.35-.1.82.26,1.43.49-.25-.45-.43-.8-.64-1.12-.42-.65-.93-1.24-1.26-1.93-.52-1.09-.3-1.61.68-1.96-.09-.6-.24-1.21-.23-1.8,0-.6.28-.97.85-.44.15.14.29.3.36.37.31-.63.53-1.26.89-1.74.2-.27.65-.47.95-.39.2.05.45.62.47.97.08,1.47.08,2.94.12,4.46.63.18,1.31.51,1.15,1.62-.17,1.16-.77,1.4-2.95,1.17,0,.45,0,.89-.01,1.44.31-.08.51-.14.71-.19.77-.18,1.48.24,1.76,1.06.31.91-.1,1.43-.72,1.8-.27.16-.57.36-.86.35-1.07-.02-1.26.69-1.14,1.72.04.32.05.64.07.95.06-.06.12-.13.18-.19.4.32.95.55,1.15.98.23.48.16,1.15.21,1.73.4.1.82.14,1.19.32.78.35,1.27,1.34,1.06,2.09-.26.97-.96.94-1.68.77-.75-.17-1.49-.37-2.23-.56.02-.18.04-.36.06-.54.21,1.06.42,2.12.6,3.02.55-.06.95-.1,1.35-.14.05.54.12,1.08.13,1.62,0,.19-.11.42-.24.55-.69.73-.58,1.61-.28,2.54.11.34.18.7.27,1.05.91,3.51,2.07,6.9,3.77,10.06.21.4.59,1.08.76,1.05,1.06-.24,1.59.63,2.04,1.17.53-.11,1.04-.38,1.22-.2.28.27.43.85.47,1.31.04.56-.11,1.13-.14,1.69-.02.33.04.67.06.87.54-.29,1-.77,1.4-.69.35.07.79.73.93,1.21.45,1.49-.85,3.75-2.17,3.92-.05,0-.13-.13-.25-.25.32-.25.72-.39.89-.71.45-.87.84-1.79,1.14-2.75.07-.21-.38-.66-.59-1-.27.22-.61.37-.8.66-.23.36-.34.84-.57,1.46-.04-.35-.09-.46-.07-.54.21-.87-.39-1.31-.82-1.83-.08-.09-.47-.04-.47,0-.07.57-.11,1.15-.14,1.73,0,.07.04.14.06.21.07.38.14.76.2,1.14-.09.07-.18.14-.27.21-.39-1.76-1.29-2.63-3.01-2.58.37.74.66,1.31,1.02,2.03-.43-.18-.7-.39-.95-.38-.34.02-.67.22-1,.34.16.35.25.82.5,1.04.63.57,1.34.75,2.12.42.44-.19.97-.15,1.45-.21,0,.1.02.2.03.29-.3.05-.61.06-.89.16-.53.19-1.09.59-.77,1.26.2.43.87.64,1.36.84.18.07.48-.13.65-.31.55-.58.97-.26,1.55.13,3.09,2.07,6.13,4.31,9.36,6,4.11,2.16,8.41,3.8,12.58,5.78,6.51,3.09,13.02,6.19,19.88,7.85,3.29.8,6.63,1.75,9.93,1.93,6.53.34,19.04-1.32,25.43-2.54l-2.29.97-14.85,1.69ZM26.02,125.43c-.25-.35-.81-.42-1.24-.56-.07-.02-.2.29-.31.44.34.3.68.84,1.01.85,1.05.04,1.38,1.01,1.92,1.72.1.14.21.27.31.41,1.07,1.45,2.14,2.89,3.32,4.48-.52-.16-.87-.34-1.23-.37-.27-.02-.54.16-.81.25.16.27.29.57.48.8.14.18.37.28.53.62-.38-.07-.77-.13-1.21-.21,0,.25,0,.47,0,.74-.24,0-.48-.05-.67.02-.24.09-.45.28-.67.43.23.21.44.52.7.61.31.11.66.03,1.07.03-.51.39-.95.74-1.5,1.16.99.57,2.24.44,3.19-.19-.1-.69-1.3-.76-.88-1.66.25-.53.76-.89,1.31-1.51.25-1.2-.69-2.05-1.6-2.95-.71-.7-1.37-1.48-2.05-2.23-.55-.98-1.05-2-1.69-2.9ZM15.08,68.54c-.43-.26-.81-.48-1.2-.71,1.26-.01,2.38.02,3.49-.07.29-.02.54-.44.81-.68-.3-.29-.56-.68-.9-.85-.67-.33-1.34-.34-1.91.25-.21.21-.52.3-.92.23.41-.39.89-.73,1.2-1.21.2-.31.35-1,.19-1.21-.23-.31-.75-.45-1.14-.47-.19-.01-.46.37-.55.65-.12.38-.1.83-.21,1.27-.22-1.31-.07-2.8-1.59-3.52-.58,1.91.32,3.59.56,5.38-.17-.46-.28-.99-.55-1.36-.21-.28-.64-.49-.95-.48-.15,0-.36.58-.37.92-.03,1.08.32,1.5,1.22,1.64.27.04.54.2.85.31.1-.24.21-.5.32-.75.04.01.09.03.13.04,0,.37,0,.74,0,1.25.17-.24.26-.38.42-.61,0,.78-.01,1.45-.02,2.14.54,0,1.04.11,1.49,0,.38-.1.76-.39,1.03-.71.13-.16.03-.58.04-.89-.41-.03-.83-.12-1.24-.08-.22.02-.42.25-.63.39-.04-.04-.08-.08-.13-.12.18-.25.37-.49.56-.75ZM10,101.87c-.04.09-.08.17-.12.26.42.45.84.9,1.27,1.35-1.82-1.17-3.53-2.71-5.79-2.16.65,1.32,6.09,4.17,7.44,3.89-.66-1.01-.97-1.91-.29-3.11.6-1.05-.42-2.88-1.82-3.34.15.4.24.67.35.93.12.25.26.49.51.96-.63-.39-1.05-.75-1.52-.91-.26-.09-.6.14-.9.22.15.29.25.66.47.86.49.44,1.05.8,1.69,1.28-.51-.09-.9-.15-1.28-.22ZM13.85,92.86c-.27-2.18-.5-4.36-.8-6.54-.05-.34-.3-.74-.56-.95-.94-.77-1.92-1.48-2.88-2.2.1.99-1.84,1.64-.51,3.36.35-.33.64-.78,1.03-.93.37-.15,1.14-.12,1.22.07.19.48.21,1.16.07,1.65-.13.41-.59.67-.91,1-.73.75-.67,1.17.11,1.74.46-.28,1.08-.82,1.19-.7.44.45.89,1.08,1.03,1.71.43,1.95.72,3.94,1.09,5.91.02.11.22.18.54.44-.23-1.67-.45-3.11-.63-4.55ZM17.23,99.29c-.11-.02-.22-.05-.32-.07-.5.58-.75,1.23-.4,2.18.18.49.21,1.04.3,1.57-.08.02-.16.03-.24.05-.15-.53-.3-1.06-.52-1.83-1.13,1.48-.71,3.04-.62,4.42-.37-.12-.74-.24-1.12-.36.05.73.11,1.46.16,2.14-.06-.07-.21-.31-.41-.48-.45-.39-.9-.84-1.41-1.07-.27-.13-.67.13-1.01.22.11.35.14.77.33,1.04,1.06,1.44,2.02,1.7,3.41.88l1.26,3.34c.1-.04.2-.07.3-.11-.09-.28-.17-.56-.27-.84-.35-1.07-.79-2.13-1.01-3.23-.08-.41.29-.94.51-1.37.5-.99,1.11-1.91,1.53-2.95.23-.56.35-1.39-.55-1.59.02-.68.05-1.31.07-1.94ZM47.58,150.41c.5.76.89,1.36,1.3,1.97-.78-.1-1.6.06-1.83,1.18-.07.35.1,1.09.24,1.13.62.15,1.26.12,1.7.14-.19.55-.52,1.38-.77,2.24-.06.21.05.69.18.76.21.11.56.08.76-.06,1.21-.84,1.94-2.14,2.51-3.74-.65.05-1.18.08-1.72.12l-.04-.27c.57-.08,1.14-.16,1.71-.24,0-.06,0-.12,0-.18-.49,0-.97-.01-1.53-.02-.02-1.9-.95-3.15-2.5-3.04ZM35.66,131.57c.06-.61.15-1.19.15-1.78,0-.22-.22-.46-.34-.69-.16.17-.39.3-.48.51-.13.29-.16.64-.25,1.03-.38-.76-.65-1.45-1.04-2.04-.17-.26-.58-.31-.88-.45-.08.36-.29.76-.21,1.08.17.71.49,1.38.75,2.07-.1.06-.19.12-.29.18-.27-.59-.49-1.22-.81-1.77-.34-.58-.7-1.24-1.18-1.59-.66-.47-1.14,0-1.06.89.15,1.63.98,2.8,2.38,3.34.42.16.83.36,1.3.56.7-2,.72-2.02,1.96-1.33ZM52.36,154.2c-.18.94.23,1.56,1.04,1.4.51-.1,1.03-.41,1.44-.79.51-.47.9-1.11,1.34-1.68.48-.62.02-2.94-.67-3.31-.54-.28-.76.1-.78.63-.01.4.09.81-.02,1.29-.13-.29-.21-.66-.41-.86-.34-.34-.75-.6-1.16-.82-.04-.02-.44.56-.38.76.16.53.46,1.02.76,1.48.09.14.39.1.6.15-.82.36-1.54.68-1.75,1.74ZM18.84,53.5c-1.55-.02-2.56,1.67-2.12,3.28.15.57.04,1.27-.1,1.86-.15.6-.02.92.43,1.23.94.63,1.89.81,2.88.4.54-.23.58-.66.08-.99-.48-.32-1.04-.48-1.57-.66-.43-.14-.88-.2-1.3-.51.59-.05,1.23.02,1.77-.19.38-.15.62-.7.92-1.07-.54-.27-1.07-.58-1.62-.78-.17-.06-.41.16-.62.25-.04-.08-.09-.16-.13-.23.74-.66,1.49-1.31,1.39-2.59ZM41.47,142.5c-2.86-2.07-11.53-.61-13.13,2.29,4.4-1,8.54-2.63,13.13-2.29ZM57.86,172.73c-.05.4-.16.8-.13,1.19.03.36.22.72.34,1.08.22-.25.56-.45.63-.75.16-.69.19-1.43.27-2.14.1.01.2.02.3.03.01.47-.02.94.05,1.4.04.32.2.63.35.91.05.09.4.09.41.04.09-.32.26-.71.16-.97-.24-.62-.55-1.26-.96-1.73-.17-.2-.69,0-1.04.03-.45-.58-.89-1.29-1.46-1.81-.26-.24-.77-.12-1.17-.16.1.42.1.97.33,1.24.36.42.88.65,1.3,1.19-.44-.19-.88-.42-1.34-.56-.32-.1-.67-.1-1.01-.14.19.41.31,1.02.6,1.18.44.24,1,.17,1.75.25-1.4.43-2.2,1.19-1.41,3.01,1.26-.71,1.3-2.22,2.03-3.3ZM12.7,81.21c-.11.06-.22.12-.33.18.08.58.17,1.16.28,1.98-.25-.29-.39-.43-.5-.6-.17-.26-.28-.67-.49-.77-.46-.22-.96-.28-1.45-.4.1.52.06,1.17.33,1.53.67.94,1.49,1.47,2.65,1.65.73.11,1.38.2,2.05-.03.66-.23,1.21-.7,1.03-1.59-.09-.42-.54-1-.89-1.1-.69-.18-1.25.22-1.46,1.06-.01.05-.09.08-.06.06-.39-.65-.78-1.32-1.17-1.98ZM61.86,160.81c1.49-1.41,2.96-2.86,4.53-4.14.72-.58,1.67-.79,2.79-1.29-.55-.04-.86-.13-1.13-.07-3.68.8-6.46,3.16-8.67,6.44-.31.47-.46,1.09-.69,1.64l.32.27c.95-.96,1.87-1.94,2.84-2.86ZM38.08,157.13c-.04.14.38.64.41.62.52-.32,1.06-.63,1.48-1.08.36-.39.57-.95.9-1.53-.37-.04-.67-.08-.96-.11,0-.06-.02-.13-.02-.19.55-.08,1.11-.16,1.8-.27-.26-.17-.41-.28-.58-.39.68-2.17-.07-3.8-1.89-3.94-.23,1.01.15,1.76,1.02,2.5-.48-.05-.78-.09-1.42-.16.44.66.71,1.07.91,1.37-.43.13-.93.28-1.44.44.21.38.41.76.52.97-.3.69-.57,1.22-.74,1.79ZM39.81,148.95c.01.17.03.34.04.52,1.37-.07,2.74-.04,4.09-.21,3-.38,5.98-.85,8.56-1.23-4.02-.61-8.42-.43-12.7.93ZM28.52,133.01c-.16-.24-.28-.57-.49-.7-2.9-1.85-5.91-3.07-9.2-2.64-.32.04-.61.2-.92.3,3.54,1.18,7.14,1.33,10.61,3.04ZM14.51,61.32c-.27-.79-.58-1.59-1.01-2.28-.3-.47-.71-.41-.84.27-.21,1.09.55,3.69,1.4,4.06.57.25,1.38.09,1.92-.22.38-.22.54-1,.69-1.57.04-.15-.38-.7-.46-.67-.41.15-.84.35-1.14.69-.21.23-.2.71-.3,1.07-.06,0-.11,0-.17,0-.03-.45.04-.94-.1-1.35ZM61.8,152.08c-1.94-.86-3.87-1.76-5.72-2.61.24.84.44,1.66.71,2.44.11.3.39.75.59.76,1.85.08,3.7.08,5.55.1.04-.11.08-.23.12-.34-.42-.12-.85-.18-1.25-.36ZM12.79,69.36c-.16-.21-.64-.32-.84-.2-.19.11-.29.59-.27.9.11,1.48,2.57,3.6,3.76,3.21.32-.1.72-.54.74-.88.02-.32-.37-.89-.66-1.01-.5-.2-1.08-.12-1.61-.16-.37-.63-.69-1.3-1.13-1.87ZM24.41,122.09c-.16-.21-.62-.32-.82-.21-.18.1-.31.62-.23.88.25.8.46,1.69,1.52,1.56.38-.05.81.31,1.06.41.4-.71.94-1.34,1.12-2.11.12-.5-.15-1.39-.51-1.75-.49-.49-.92.06-1.1.62-.11.32-.11.69-.12,1.05-.01.34.01.68.02,1.01h-.16c-.26-.5-.46-1.05-.79-1.47ZM11.52,94.08c-.9,1.19-.04,1.93.35,2.75-.12,0-.17.03-.21,0-.37-.22-.73-.44-1.09-.67.12.47.15,1,.37,1.4.37.66.86,1.24,1.5,1.78,0-.4-.02-.81-.03-1.3.1.09.22.24.25.22.65-.35,1.07-2.11.67-2.82-.09-.16-.38-.39-.42-.36-.23.2-.42.48-.63.73-.23-.51-.46-1.05-.77-1.74ZM79.57,165.18c1.92-1.71,3.76-3.35,5.66-5.04-1.92-.57-5.74,2.72-5.66,5.04ZM30.98,127.35c-.48-.95-.88-1.74-1.33-2.63-.67.65-1.28,1.19-1.81,1.82-.14.17-.12.74.02.98.42.67.93,1.27,1.41,1.9.08,0,.16,0,.24,0-.26-1.31.23-1.96,1.46-2.06ZM62.86,153.35c-1.77-.11-3.55-.19-5.32-.21-1.11-.01-1.92.71-2.13,1.76-.05.25-.04.67.08.78.18.16.61.26.75.13.47-.44,1-.91,1.26-1.52.25-.59.47-.86,1.07-.81,1.96.18,3.92.32,5.88.47.24.02.48.03.71.04,0-.09,0-.19,0-.28-.77-.13-1.54-.32-2.31-.36ZM27.59,92.81c.15-.27.03-.75.03-1.13-.31.17-.74.25-.89.54-.29.56-.51,1.22-.58,1.87-.16,1.35.86,2.32,1.96,1.82.34-.15.5-.77.74-1.17-.33-.26-.65-.69-1-.74-.43-.06-.89.18-1.48.33.48-.58.93-.99,1.23-1.52ZM14.09,76.56c-.27.17-.45.79-.41,1.19.09.89.34,1.78.53,2.72.92.1,1.81-.37,1.83-1.09.03-.9-.51-1.47-1.61-1.54.35-.2.6-.34.92-.51-.25-.85-.76-1.08-1.26-.77ZM34.87,153.18c.73.97,2.48,1.34,3.23.62.22-.21.32-.8.24-1.16-.09-.41-.38-.91-.7-1.1-.38-.23-1.2-.37-1.28-.2-.29.65.28.88.72,1.1.07.04.12.13.23.25-.81.28-1.79-.42-2.43.49ZM17.3,119.61s.04.5.17.63c.57.6,1.23.66,1.98.41-.3-1-.56-1.98.69-2.49-.66-.54-1.15-1.02-1.7-1.35-.2-.12-.61.03-.8.22-.09.09.01.63.16.84.3.41.69.73.99,1.05-.55.25-1.04.44-1.49.7ZM10,90.45c-.21,1.02.17,1.9.68,2.58.5.66,1.22,1.09,2.07,1.82.13-.53.37-1.01.33-1.48-.03-.4-.33-.83-.61-1.14-.06-.07-.5.29-.78.47-.27-.92-.55-1.95-1.7-2.25ZM69.14,162.09c3.54-1.06,7.3-2.19,11.13-3.34-4.12.11-7.83,1.38-11.13,3.34ZM28.8,108.68c.69.03.92-.46.69-1.21-.44-1.44-2.1-1.65-3.14-.35.57,1.06,1.45,1.51,2.45,1.56ZM14.09,113.34c0,.07.39.2.59.29.11-.35.21-.71.34-1.12.18.07.48.27.76.26.16,0,.29-.36.43-.56-1-.37.62-1.67-.61-1.94-.15-.03-.32-.04-.46,0-.35.09-.88.11-.98.36-.13.32.1.85.17,1.24-.1.54-.21,1-.24,1.47ZM1.45,72.92c-.19-.05-.53-.03-.58.09-.1.25-.16.67-.04.88.55.95,1.17,1.85,1.88,2.95.77-1.55-.02-3.57-1.26-3.92ZM47.99,155.58c-.75-.17-2.65,2.43-2.68,3.86,1.85-.48,2.68-1.79,2.68-3.86ZM26.92,158.05c.08.1.16.2.24.3l1.87-.83c-.2-.53-.3-1.02-.54-1.37-.22-.32-.62-.71-.91-.69-.48.03-.93.37-1.39.57.15.24.27.63.46.68.3.09.65-.03,1.03-.07-.31.57-.54.99-.76,1.41ZM22.74,103.92c-.16,0-.46.1-.47.19-.02.29-.03.71.12.88.77.85,1.58,1.64,2.53,2.59.25-1.76-.98-3.61-2.18-3.67ZM5.69,80.73c-.54-.92-1.26-1.76-.68-3,.13-.28-.05-.88-.25-1.21-.16-.26-.62-.49-.86-.42-.23.07-.49.53-.49.84,0,.44.14.96.37,1.32.86,1.39,1.79,2.74,2.69,4.1.03-.02.05-.04.08-.06-.28-.53-.54-1.07-.84-1.59ZM27.7,99.92c.33-.22.72-.8.65-1.14-.08-.39-.65-.96-.96-.94-.44.02-.95.41-1.21.84-.21.34-.08.95-.12,1.75.68-.19,1.23-.23,1.65-.51ZM62.18,170.09c.05.01.11.02.16.03-.05.3-.16.61-.12.9.04.27.24.52.37.78.17-.15.5-.31.5-.46-.03-.76-.13-1.53-.27-2.29-.02-.13-.35-.32-.5-.3-.85.15-1.57,1.8-1.02,2.99.3-.55.6-1.11.89-1.66ZM14.65,98.37c-.08-.26-.36-.63-.54-.65-.25-.02-.6.19-.73.44-.47.89-.57,1.84.07,2.82.47-.36.94-.73,1.47-1.14-.08-.44-.12-.97-.27-1.47ZM18.71,63.09c.15-.33,0-1.12-.24-1.34-.4-.36-.99-.49-1.35.21-.3.58-.64,1.13-1,1.76.82.42,2.24.18,2.59-.62ZM21.99,124.68c-.26-.13-.65.15-.99.25.26.32.48.79.8.92.41.16.9.04,1.46.05-.32.24-.55.41-.97.72.95.34,1.67.76,2.63-.16-1.06-.65-1.97-1.27-2.93-1.76ZM1.02,76.37c-.22.04-.55.22-.57.39-.03.25.12.72.29.8.81.4,1.66.7,2.62,1.08-.32-1.65-1.24-2.46-2.34-2.27ZM9.12,82.69c.05-.39-.26-.94-.53-1.3-.1-.14-.68-.07-.79.11-.24.39-.47.93-.41,1.38.07.56.43,1.1.66,1.64.13.03.25.06.38.09.24-.64.6-1.25.69-1.92ZM62.87,165.37c-.14.04-.31.38-.28.55.04.17.29.4.47.43.79.17,1.96-1.25,1.67-2.1-.14-.42-.58-.81-.96-.99-.17-.08-.51.4-.78.62.28.33.56.67.85.98.11.11.27.16.57.32-.65.07-1.11.08-1.54.2ZM46.83,155.61c.11-.16.01-.6-.1-.85-.08-.16-.37-.32-.54-.3-.86.09-1.6,2.09-1.02,3.21.58-.71,1.16-1.34,1.66-2.05ZM51.59,150.89c-.14-.23-.57-.25-.87-.36-.07.35-.2.69-.21,1.04,0,.42.08.85.15,1.5.41.02,1,.05,1.95.11-.4-.93-.65-1.65-1.03-2.27ZM16.36,57.5c.06-.25-.35-.68-.55-1.02-.23.26-.62.48-.65.78-.1,1-.08,2.02-.1,3.04l.32.15c.34-.98.73-1.93.98-2.94ZM10.53,77.43l-.24.37c.62.66,1.25,1.32,1.97,2.08,0-1.09,0-1.85-.02-2.61,0-.31,0-.66-.14-.92-.1-.2-.39-.29-.59-.43-.08.24-.27.49-.23.71.11.55.32,1.07.5,1.61-.47-.3-.86-.54-1.26-.79ZM27.58,88.99c-.07-.65-.35-.72-.75-.35-.9.84-.89,1.94-.54,3.3.94-.79,1.43-1.68,1.29-2.95ZM24.36,98.83c-.21-.34-.52-.69-.84-.81-.3-.11-.68.07-1.02.13.14.34.2.8.43,1.01.62.56,1.32,1.02,1.98,1.52l.17-.33c-.24-.51-.43-1.06-.72-1.53ZM6.37,83.34c-.54-1.47-1.85-2.31-3.01-1.93.28,1.06,1.41,1.79,3.01,1.93ZM7.83,80.76c.13-.34,0-.83,0-1.26-.34.03-.76-.08-1.01.1-.75.53-.69,1.41.13,2.49.33-.47.71-.85.89-1.34ZM14.58,104.22c-.33-.34-.65-.77-1.04-1.04-.28-.19-.67-.17-1.01-.25.03.4-.03.85.12,1.19.25.54.63,1,.95,1.5.31-.45.61-.87.97-1.39ZM9.52,92c-.56-.26-.73.08-.71.66.04.93.84,1.79,1.9,2.05.08-.7-.68-2.48-1.19-2.71ZM13.96,55.71c-.12-.17-.35-.23-.53-.34-.07.18-.21.35-.2.53.06,1.17.44,2.19,1.34,3.02.24-1.23.04-2.27-.62-3.21ZM54.38,155.92c-.06.54-.19,1.08-.14,1.61.01.18.58.55.7.47.44-.3.81-.75,1.2-1.14-.05-.12-.1-.25-.15-.37-.54-.19-1.07-.38-1.61-.56ZM15.16,101.58c.02-.3-.21-.63-.33-.95-.26.18-.62.28-.78.54-.45.74-.14,1.73.79,2.88.11-.8.27-1.63.32-2.47ZM60.86,165.47c-.25-.15-.71.01-.98.2-.16.11-.27.67-.16.82.15.23.51.28.79.39.5.2,1.01.4,1.54.61.02-.89-.45-1.6-1.18-2.02ZM13.25,80.39c.83-.79.64-2.21-.44-3.27-.51.94-.35,2.12.44,3.27ZM14.43,114.54c.7.92,2.01,1,3.1.18-.78-.87-1.61-.92-3.1-.18ZM25,102.98c-.13-.11-.42-.22-.49-.15-.13.13-.27.45-.21.61.32.9.69,1.78,1.13,2.89.46-1.05.12-2.89-.43-3.36ZM6.85,85.04c-.81-.27-1.61-.15-2.24.98,1.11.04,2.11.08,3.43.12-.44-.43-.78-.97-1.2-1.11ZM24.93,92.94c-.16-.15-.45-.13-.68-.19-.02.26-.13.58-.03.76.43.81.93,1.59,1.4,2.38.28-1.2.1-2.19-.69-2.94ZM42.7,155.57c-.06-.15-.12-.3-.18-.45-.41.07-.9.02-1.22.25-.54.38-.96.95-.53,2.29.75-.81,1.34-1.45,1.93-2.09ZM11.2,86.82c.11-.16.09-.6-.03-.77-.11-.15-.46-.19-.66-.13-1.02.3-1.27,1.21-.56,2.38.43-.5.88-.95,1.25-1.48ZM29.53,155.49c-.25.04-.59.35-.62.6-.03.24.25.72.47.81.3.13.74.11,1.01-.06.26-.16.38-.6.75-1.23-.68-.06-1.16-.18-1.61-.11ZM5.96,86.45c.7,1.19,1.72,1.42,2.77,1.83-.46-1.38-1.55-2.1-2.77-1.83ZM23.14,120.47c-.02-.17-.82-.53-.93-.41-.3.35-.43.9-.63,1.37.35.17.7.35,1.25.62.15-.65.36-1.12.31-1.57ZM25.94,157.17c-.37.34-.67.79-.94,1.24-.04.06.28.53.31.52.46-.25.91-.51,1.32-.85.12-.1.08-.46.13-.8-.3-.05-.67-.23-.81-.11ZM27.01,104.11c-.12-.19-.42-.38-.6-.35-.16.03-.36.36-.36.58,0,.62.07,1.25.12,1.89.98-.31,1.37-1.28.85-2.12ZM5.25,76.04c.29-.52.6-1.18-.08-1.68-.78-.57-1.08.19-1.37.87.51.28.95.53,1.45.81ZM24.27,96.96c.33,1.02.62,1.91.91,2.79.64-1.64.33-2.55-.91-2.79ZM30.67,157.79c-.32-.07-.83-.3-.91-.17-.27.44-.39,1.02-.57,1.54.23.09.45.18.87.35.23-.65.42-1.19.61-1.72ZM27.17,126.51c.7-.82.67-2.18-.06-2.92-.53.83-.51,1.86.06,2.92ZM25.68,93.29c.47-.69.07-2.19-.83-3.22-.21,1.26.21,2.24.83,3.22ZM29.12,124.09c.08-.23-.21-.64-.33-.97-.26.21-.7.36-.75.64-.1.53.02,1.13.05,1.7.08.02.16.04.23.06.28-.47.63-.91.8-1.44ZM12.56,74.74c-.23.02-.63.41-.6.58.13.78.51,1.35,1.29,1.39.13-.99-.22-2.02-.69-1.97ZM59.37,167.67c.71.88,1.42.94,2.35.17-.91-.76-1.65-.82-2.35-.17ZM12.69,91.54c-.22-.58-.4-1.14-.65-1.65-.05-.11-.46-.16-.53-.07-.56.75,0,1.35.34,2.04.24-.09.46-.17.84-.32ZM24.44,110.45c.75,1.05,1.34,1.88,2.11,2.98-.04-1.78-.7-2.74-2.11-2.98ZM11.82,64.43c-.04-.66-.11-1.34-.84-1.41-.11-.01-.38.53-.34.78.12.66.26,1.45,1.19,1.28,0-.24,0-.44,0-.64ZM27.31,116.07c-.08.03-.15.05-.23.08.63,2.13,1.26,4.27,1.89,6.4.09-.03.17-.06.26-.09-.64-2.13-1.29-4.26-1.93-6.39ZM38.9,158.21c-.13.13-.21.47-.15.66.04.15.33.33.5.32.6-.02,1.05-1,.83-1.88-.45.33-.84.57-1.18.9ZM17.57,71.42c.02-.06-.51-.34-.78-.52-.11.55-.21,1.09-.32,1.64.18.09.36.18.54.27.2-.46.43-.9.56-1.39ZM28.18,154.16c-.12.08-.1.42-.15.64.54.11,1.09.22,1.63.34.02-.16.03-.32.05-.48-.44-.51-.92-.89-1.54-.5ZM65.81,162.17c-.18-.03-.38.23-.58.35.18.21.36.57.56.6.47.08.95,0,1.42,0,.02-.15.03-.31.05-.46-.48-.17-.96-.39-1.45-.48ZM25.25,126.99c-.18-.04-.42.34-.64.54.21.17.41.48.62.5.53.04,1.07-.04,1.61-.07.01-.1.02-.2.03-.3-.54-.23-1.07-.53-1.62-.66ZM23.82,125.08c-.46-1.38-.96-1.74-2.21-1.3.86.51,1.51.89,2.21,1.3ZM32.06,138.02c.11,0,.18-.4.27-.61-.31-.15-.63-.4-.94-.42-.16-.01-.33.36-.7.82.65.12,1.02.24,1.37.22ZM28.02,111.16c-1.09.41-1.22.86-.65,2.15.2-.64.39-1.29.65-2.15ZM28.2,131.12c.49.35.98.69,1.48,1.04.06-.13.11-.26.17-.39-.41-.54-.74-1.25-1.65-.65ZM21.95,126.77c-.77-.75-1.3-1.2-1.83-.39.01.13.02.26.04.39.51,0,1.03,0,1.79,0ZM25.55,107.15c-.08,0-.15.02-.23.03l.49,3.51c.1-.01.19-.02.29-.04-.18-1.17-.37-2.33-.55-3.5Z"/><path class="cls-1" d="M43.11,151.84c.49-.49.95-.34,1.4.15.36.39.72.8,1.23,1.06-.27-.46-.61-.89-.77-1.39-.12-.37,0-.83.01-1.26.34.17.77.24,1,.52.31.39.47.94.7,1.45.23-1-.48-2.31-1.3-2.46-.06-.01-.15-.04-.18-.01-.73.63-1.46,1.26-2.19,1.9.03.01.06.03.09.05Z"/><path class="cls-1" d="M31.94,158.42c-.12.97.15,1.31.89,1.01.6-.24,1.1-.47,1.83-.14.39.17,1-.42,1.52-.67l-.12-.27c-.47.17-.95.52-1.4.46-.27-.04-.49-.73-.72-1.1-1.28,1.7-1.43,1.76-2.02.7,0,0,.02,0,.02,0Z"/></g></svg>