<?xml version="1.0" encoding="UTF-8" standalone="no"?>
<svg
   id="Capa_2"
   viewBox="0 0 86.919998 80.550005"
   version="1.1"
   sodipodi:docname="logo-simple.svg"
   width="86.919998"
   height="80.550003"
   inkscape:version="1.1.2 (0a00cf5339, 2022-02-04)"
   xmlns:inkscape="http://www.inkscape.org/namespaces/inkscape"
   xmlns:sodipodi="http://sodipodi.sourceforge.net/DTD/sodipodi-0.dtd"
   xmlns="http://www.w3.org/2000/svg"
   xmlns:svg="http://www.w3.org/2000/svg">
  <sodipodi:namedview
     id="namedview80"
     pagecolor="#ffffff"
     bordercolor="#666666"
     borderopacity="1.0"
     inkscape:pageshadow="2"
     inkscape:pageopacity="0.0"
     inkscape:pagecheckerboard="0"
     showgrid="false"
     fit-margin-top="0"
     fit-margin-left="0"
     fit-margin-right="0"
     fit-margin-bottom="0"
     inkscape:zoom="3.7404894"
     inkscape:cx="35.155828"
     inkscape:cy="47.988373"
     inkscape:window-width="1920"
     inkscape:window-height="1017"
     inkscape:window-x="0"
     inkscape:window-y="26"
     inkscape:window-maximized="1"
     inkscape:current-layer="Capa_1-2" />
  <defs
     id="defs4">
    <style
       id="style2">.cls-1,.cls-2{fill:#000;}.cls-1,.cls-3,.cls-4{stroke-width:0px;}.cls-2{stroke:#1d1d1b;stroke-miterlimit:10;stroke-width:.27px;}.cls-3{fill:#1d1d1b;}.cls-4{fill:#fff;}</style>
  </defs>
  <g
     id="Capa_1-2"
     transform="translate(-52.15,-40.54)">
    <path
       class="cls-3"
       d="m 99.41,93.28 c -3.62,1.36 -7.13,2.21 -10.48,2.55 l 3.69,9.67 c 1.39,-1.49 2.67,-3.04 3.85,-4.65 1.3,-1.77 2.53,-3.65 3.68,-5.63 z m 5.17,13.4 -0.14,-0.33 -0.48,-1.18 0.47,1.22 v 0 c 0,0 0.13,0.35 0.13,0.35 l 0.12,0.32 0.03,-0.06 v 0 c 0,0 -0.13,-0.32 -0.13,-0.32 z m 8.22,-21.13 -0.14,0.39 0.15,-0.39 z"
       id="path50" />
    <path
       class="cls-4"
       d="m 104.58,106.68 -0.14,-0.33 -0.48,-1.18 0.47,1.22 v 0 c 0,0 0.13,0.35 0.13,0.35 l 0.12,0.32 0.03,-0.06 v 0 c 0,0 -0.13,-0.32 -0.13,-0.32 z m 8.22,-21.13 -0.14,0.39 0.15,-0.39 z m -8.22,21.13 -0.14,-0.33 -0.48,-1.18 0.47,1.22 v 0 c 0,0 0.13,0.35 0.13,0.35 l 0.12,0.32 0.03,-0.06 v 0 c 0,0 -0.13,-0.32 -0.13,-0.32 z m 8.22,-21.13 -0.14,0.39 0.15,-0.39 z m -8.22,21.13 -0.14,-0.33 -0.48,-1.18 0.47,1.22 v 0 c 0,0 0.13,0.35 0.13,0.35 l 0.12,0.32 0.03,-0.06 v 0 c 0,0 -0.13,-0.32 -0.13,-0.32 z m 8.22,-21.13 -0.14,0.39 0.15,-0.39 z m -8.22,21.13 -0.14,-0.33 -0.48,-1.18 0.47,1.22 v 0 c 0,0 0.13,0.35 0.13,0.35 l 0.12,0.32 0.03,-0.06 v 0 c 0,0 -0.13,-0.32 -0.13,-0.32 z m 8.22,-21.13 -0.14,0.39 0.15,-0.39 z m -8.22,21.13 -0.14,-0.33 -0.48,-1.18 0.47,1.22 v 0 c 0,0 0.13,0.35 0.13,0.35 l 0.12,0.32 0.03,-0.06 v 0 c 0,0 -0.13,-0.32 -0.13,-0.32 z m 8.22,-21.13 -0.14,0.39 0.15,-0.39 z"
       id="path52" />
    <path
       class="cls-3"
       d="m 139.07,44.4 v 1.48 h -9.49 l -12.56,33.29 -0.17,0.45 -0.18,0.48 -1.17,3.1 -0.17,0.44 -0.17,0.46 -13.96,36.99 h -2.63 l -0.12,-0.32 v 0 c 0,0 -0.12,-0.32 -0.12,-0.32 l -0.52,-1.34 v 0 c 0,0 -4.08,-10.7 -4.08,-10.7 1.66,-1.73 3.2,-3.57 4.61,-5.51 1.05,-1.45 2.07,-2.95 3.03,-4.48 l 2.59,6.75 0.47,1.22 v 0 c 0,0 0.13,0.35 0.13,0.35 l 0.12,0.32 0.03,-0.06 v 0 c 0,0 7.94,-21.04 7.94,-21.04 v -0.02 c 0,0 0.16,-0.39 0.16,-0.39 l 0.15,-0.41 v 0 c 0,0 1.13,-3.02 1.13,-3.02 l 0.17,-0.44 0.17,-0.45 13.35,-35.35 h -11.5 V 44.4 h 22.78 z"
       id="path54" />
    <path
       class="cls-3"
       d="m 124.81,75.43 c -0.36,0.37 -0.79,0.66 -1.2,0.98 -1.99,1.81 -4.23,3.69 -6.66,5.64 -0.24,0.19 -0.48,0.38 -0.72,0.57 l 1.17,-3.12 h 0.01 c 0.25,-0.21 0.49,-0.4 0.73,-0.6 1.52,-1.26 3.03,-2.54 4.49,-3.83 l 0.07,-0.04 c 0.41,-0.36 0.66,-0.56 1.05,-0.85 0.44,-0.33 0.74,-0.68 1.26,-0.68 0.08,0 0.17,0 0.26,0.03 0.95,0.43 0.04,1.37 -0.46,1.9 z"
       id="path56" />
    <path
       class="cls-3"
       d="m 112.68,83.19 c -1.97,1.43 -4.01,2.76 -6.11,3.98 1.1,-2.91 2.07,-5.97 2.9,-9.11 0.9,-3.38 1.33,-7.23 1.27,-11.42 0,-4.5 -0.65,-8.6 -1.94,-12.21 -1.3,-3.6 -3.14,-6.63 -5.49,-8.97 -1.15,-1.21 -2.56,-2.26 -4.2,-3.1 -1.63,-0.85 -3.44,-1.41 -5.38,-1.65 -0.87,-0.12 -1.72,-0.17 -2.54,-0.17 -1.36,0 -2.66,0.15 -3.88,0.45 -1.31,0.35 -2,0.53 -3.01,0.93 -0.6,0.24 -0.87,0.34 -1.49,0.61 -0.29,0.13 -0.58,0.28 -0.85,0.44 l -0.81,0.48 -0.77,0.46 h -0.01 c 0,0 4.21,0.01 4.21,0.01 0.45,-0.18 0.91,-0.33 1.39,-0.47 1.54,-0.44 3.2,-0.71 4.96,-0.8 0.25,-0.01 0.49,-0.02 0.74,-0.02 2.28,0 4.36,0.49 6.18,1.47 2.02,1.09 3.68,2.35 4.91,3.76 2.24,2.59 3.84,5.67 4.75,9.15 0.92,3.49 1.35,7.15 1.29,10.88 -0.06,3.74 -0.52,7.45 -1.38,11.04 -0.85,3.56 -1.94,6.77 -3.23,9.55 -0.75,0.56 -1.57,1.02 -2.45,1.36 -0.75,0.29 -1.52,0.58 -2.29,0.88 -0.15,0.05 -0.3,0.11 -0.45,0.16 -0.03,0.02 -0.06,0.03 -0.09,0.04 -0.12,0.05 -0.24,0.09 -0.36,0.13 -2.69,1 -5.78,1.75 -9.19,2.23 -0.44,0.06 -0.89,0.12 -1.34,0.16 -0.16,0.02 -0.33,0.03 -0.5,0.04 -0.16,0.02 -0.32,0.03 -0.49,0.04 -0.71,0.05 -1.42,0.07 -2.13,0.07 -2.12,0 -4.27,-0.21 -6.42,-0.62 -2.12,-0.41 -4.13,-1 -5.97,-1.74 C 70.7,90.5 69.07,89.5 67.7,88.27 66.32,87.04 65.19,85.51 64.34,83.73 63.49,81.94 63,79.81 62.88,77.4 c -0.29,-4.25 0.34,-8.37 1.87,-12.24 1.54,-3.88 3.67,-7.49 6.34,-10.75 0.23,-0.28 0.46,-0.55 0.71,-0.83 0.11,-0.13 0.22,-0.27 0.34,-0.4 l -0.92,-2.43 c -0.13,0.12 -0.24,0.25 -0.36,0.38 -0.02,0.02 -0.05,0.05 -0.07,0.08 -2.68,3.11 -5.18,6.41 -7.42,9.82 -2.24,3.4 -4.17,6.95 -5.72,10.54 -1.32,3.04 -2.56,6.39 -3.69,9.94 -1.14,3.57 -1.75,7.57 -1.81,11.89 0,4.55 0.51,8.62 1.53,12.1 1.03,3.49 2.71,6.46 5,8.8 1.63,1.82 3.73,3.29 6.23,4.38 1.75,0.75 3.71,1.13 5.86,1.13 0.94,0 1.93,-0.07 2.94,-0.22 2.89,-0.42 5.52,-1.26 7.81,-2.49 2.27,-1.23 4.4,-2.58 6.32,-4.02 1.75,-1.37 3.4,-2.84 4.96,-4.43 0.12,-0.11 0.25,-0.24 0.37,-0.37 0.13,-0.13 0.25,-0.26 0.36,-0.39 1.59,-1.66 3.06,-3.42 4.41,-5.28 1.12,-1.54 2.19,-3.14 3.21,-4.78 0.11,-0.17 0.21,-0.34 0.31,-0.52 0.11,-0.17 0.22,-0.34 0.32,-0.51 1.33,-2.22 2.57,-4.53 3.69,-6.9 2,-1.08 4.05,-2.35 6.11,-3.78 0.23,-0.17 0.46,-0.33 0.69,-0.49 l 1.12,-2.97 c -0.23,0.18 -0.47,0.36 -0.71,0.53 z M 101,94.77 c -0.1,0.18 -0.2,0.36 -0.31,0.53 -0.1,0.18 -0.2,0.35 -0.31,0.52 -1.1,1.86 -2.27,3.64 -3.51,5.33 -1.24,1.69 -2.59,3.32 -4.05,4.87 -0.12,0.13 -0.24,0.26 -0.37,0.39 -0.11,0.13 -0.23,0.25 -0.36,0.37 -1.07,1.12 -2.21,2.19 -3.4,3.22 -1.48,1.24 -3.11,2.43 -4.82,3.52 -1.72,1.1 -3.63,2.04 -5.7,2.81 -2.14,0.76 -4.34,1.15 -6.56,1.15 h -0.48 c -2.38,-0.06 -4.59,-0.59 -6.59,-1.59 -3.52,-1.82 -6.18,-4.81 -7.92,-8.9 -1.74,-4.1 -2.47,-8.97 -2.18,-14.48 0.36,-5.21 1.32,-9.95 2.86,-14.06 1.32,-3.54 2.82,-6.93 4.45,-10.11 -0.15,0.72 -0.28,1.43 -0.39,2.12 -0.22,1.32 -0.38,2.75 -0.5,4.25 -0.18,4.94 0.74,8.92 2.74,11.82 1.99,2.91 4.75,5.08 8.19,6.47 4.01,1.66 8.63,2.49 13.72,2.49 h 0.7 c 0.51,-0.01 1.03,-0.03 1.55,-0.06 0.16,-0.01 0.33,-0.03 0.49,-0.04 0.16,-0.01 0.32,-0.03 0.49,-0.05 3.35,-0.32 6.86,-1.16 10.49,-2.52 0.15,-0.05 0.3,-0.11 0.45,-0.17 0.15,-0.05 0.29,-0.11 0.44,-0.17 0.91,-0.35 1.82,-0.74 2.74,-1.16 -0.59,1.17 -1.21,2.33 -1.86,3.45 z"
       id="path58" />
    <path
       class="cls-4"
       d="m 112.8,85.55 -0.14,0.39 0.15,-0.39 z"
       id="path60" />
    <path
       class="cls-3"
       d="m 98.37,90.58 c -2.68,1 -5.74,1.73 -9.08,2.2 -0.48,0.07 -0.97,0.13 -1.46,0.17 L 77.25,65.22 76.47,63.19 76.39,62.96 76.3,62.74 72.7,53.3 72.6,53.03 72.5,52.77 71.59,50.38 71.49,50.12 71.37,49.8 69.87,45.88 H 60.38 V 44.4 h 32.59 v 1.48 h -11.7 l 0.03,0.08 5.39,14.1 0.09,0.23 0.09,0.22 0.75,1.97 v 0.02 c 0,0 10.75,28.08 10.75,28.08 z"
       id="path62" />
    <path
       class="cls-3"
       d="m 112.8,85.55 -0.14,0.39 0.15,-0.39 z m -8.22,21.13 -0.02,0.06 0.12,0.32 0.03,-0.06 v 0 c 0,0 -0.13,-0.32 -0.13,-0.32 z"
       id="path64" />
    <path
       class="cls-4"
       d="m 104.58,106.68 -0.14,-0.33 v 0.04 c 0,0 -0.01,0.01 -0.01,0.01 l 0.13,0.34 0.12,0.32 0.03,-0.06 v 0 c 0,0 -0.13,-0.32 -0.13,-0.32 z"
       id="path66" />
    <polygon
       class="cls-3"
       points="104.68,107.06 104.56,106.74 104.43,106.4 104.43,106.39 103.96,105.17 104.44,106.35 104.58,106.68 104.71,106.99 104.71,107 "
       id="polygon68" />
  </g>
</svg>
